#N canvas -1616 -172 1325 300 12;
#X text 301 31 KEY OF A MAJOR;
#X obj 96 172 random3;
#X text 31 170 A major;
#X msg 46 228 110;
#X msg 89 228 138.59;
#X msg 149 229 164.81;
#X obj 714 168 random3;
#X text 649 166 E major;
#X msg 656 225 82.41;
#X msg 707 224 103.83;
#X msg 763 224 123.47;
#X obj 569 172 random3;
#X text 504 170 D major;
#X msg 512 229 73.42;
#X msg 562 228 92.5;
#X msg 609 227 110;
#X obj 261 171 random3;
#X text 196 169 B minor;
#X msg 204 229 123.47;
#X msg 258 229 146.83;
#X msg 312 230 185;
#X obj 402 173 random3;
#X text 337 171 C# minor;
#X msg 345 230 69.3;
#X msg 398 230 82.41;
#X msg 456 230 103.83;
#X obj 879 169 random3;
#X text 814 167 F# minor;
#X msg 822 226 92.5;
#X msg 872 225 110;
#X msg 908 225 138.59;
#X obj 517 -25 inlet;
#X floatatom 499 341 5 0 0 0 - - - 0;
#X obj 499 439 outlet;
#X obj 420 29 Bass_Chord_Selector, f 31;
#X connect 1 0 3 0;
#X connect 1 1 4 0;
#X connect 1 2 5 0;
#X connect 3 0 32 0;
#X connect 4 0 32 0;
#X connect 5 0 32 0;
#X connect 6 0 8 0;
#X connect 6 1 9 0;
#X connect 6 2 10 0;
#X connect 8 0 32 0;
#X connect 9 0 32 0;
#X connect 10 0 32 0;
#X connect 11 0 13 0;
#X connect 11 1 14 0;
#X connect 11 2 15 0;
#X connect 13 0 32 0;
#X connect 14 0 32 0;
#X connect 15 0 32 0;
#X connect 16 0 18 0;
#X connect 16 1 19 0;
#X connect 16 2 20 0;
#X connect 18 0 32 0;
#X connect 19 0 32 0;
#X connect 20 0 32 0;
#X connect 21 0 23 0;
#X connect 21 1 24 0;
#X connect 21 2 25 0;
#X connect 23 0 32 0;
#X connect 24 0 32 0;
#X connect 25 0 32 0;
#X connect 26 0 28 0;
#X connect 26 1 29 0;
#X connect 26 2 30 0;
#X connect 28 0 32 0;
#X connect 29 0 32 0;
#X connect 30 0 32 0;
#X connect 31 0 34 0;
#X connect 32 0 33 0;
#X connect 34 0 1 0;
#X connect 34 1 16 0;
#X connect 34 2 21 0;
#X connect 34 3 11 0;
#X connect 34 4 6 0;
#X connect 34 5 26 0;
