#N canvas -2080 -35 1667 604 12;
#X text 354 71 KEY OF A;
#X obj 615 172 random4;
#X text 500 173 D major seventh;
#X msg 537 224 293.66;
#X msg 592 225 369.99;
#X msg 644 225 440;
#X msg 679 226 554.37;
#X obj 142 167 random4;
#X text 28 169 B minor seventh;
#X msg 85 225 493.88;
#X msg 139 225 587.33;
#X msg 196 225 739.99;
#X msg 250 225 880;
#X obj 1024 173 random4;
#X text 908 172 F# minor seventh;
#X msg 948 226 369.99;
#X msg 1002 226 440;
#X msg 1035 226 554.37;
#X msg 1089 226 659.25;
#X obj 825 170 random4;
#X msg 741 225 329.63;
#X msg 796 225 415.3;
#X msg 843 225 493.88;
#X msg 894 225 587.33;
#X text 693 171 E dominant seventh;
#X obj -39 171 random4;
#X msg -130 226 440;
#X msg -93 228 554.37;
#X msg -39 228 659.25;
#X msg 15 229 830.61;
#X text -172 171 A major seventh;
#X obj 351 166 random4;
#X text 231 166 C# minor seventh;
#X msg 294 224 277.18;
#X msg 348 224 329.63;
#X msg 405 224 415.3;
#X msg 462 224 493.88;
#X obj -57 288 * 2, f 4;
#X obj 122 313 * 2;
#X obj 595 300 * 2;
#X obj 810 291 * 2;
#X obj 1008 295 * 2;
#X text 252 71 UPPER MELODY;
#X obj 368 303 * 2;
#X obj 537 -11 inlet;
#X floatatom 501 421 5 0 0 0 - - - 0;
#X obj 501 519 outlet;
#X obj 420 71 Upper_Chord_Selector, f 31;
#X connect 1 0 3 0;
#X connect 1 1 4 0;
#X connect 1 2 5 0;
#X connect 1 3 6 0;
#X connect 3 0 39 0;
#X connect 4 0 39 0;
#X connect 5 0 39 0;
#X connect 6 0 39 0;
#X connect 7 0 9 0;
#X connect 7 1 10 0;
#X connect 7 2 11 0;
#X connect 7 3 12 0;
#X connect 9 0 38 0;
#X connect 10 0 38 0;
#X connect 11 0 38 0;
#X connect 12 0 38 0;
#X connect 13 0 15 0;
#X connect 13 1 16 0;
#X connect 13 2 17 0;
#X connect 13 3 18 0;
#X connect 15 0 41 0;
#X connect 16 0 41 0;
#X connect 17 0 41 0;
#X connect 18 0 41 0;
#X connect 19 0 20 0;
#X connect 19 1 21 0;
#X connect 19 2 22 0;
#X connect 19 3 23 0;
#X connect 20 0 40 0;
#X connect 21 0 40 0;
#X connect 22 0 40 0;
#X connect 23 0 40 0;
#X connect 25 0 26 0;
#X connect 25 1 27 0;
#X connect 25 2 28 0;
#X connect 25 3 29 0;
#X connect 26 0 37 0;
#X connect 27 0 37 0;
#X connect 28 0 37 0;
#X connect 29 0 37 0;
#X connect 31 0 33 0;
#X connect 31 1 34 0;
#X connect 31 2 35 0;
#X connect 31 3 36 0;
#X connect 33 0 43 0;
#X connect 34 0 43 0;
#X connect 35 0 43 0;
#X connect 36 0 43 0;
#X connect 37 0 45 0;
#X connect 38 0 45 0;
#X connect 39 0 45 0;
#X connect 40 0 45 0;
#X connect 41 0 45 0;
#X connect 43 0 45 0;
#X connect 44 0 47 0;
#X connect 45 0 46 0;
#X connect 47 0 25 0;
#X connect 47 1 7 0;
#X connect 47 2 31 0;
#X connect 47 3 1 0;
#X connect 47 4 19 0;
#X connect 47 5 13 0;
