#N canvas -2225 -74 1941 438 12;
#X msg 162 489 110;
#X msg 207 490 130.81;
#X msg 260 490 164.81;
#X msg 367 478 123.47;
#X msg 423 478 146.83;
#X msg 475 478 174.61;
#X msg 584 478 65.41;
#X msg 635 479 82.41;
#X msg 688 480 98;
#X msg 799 477 73.42;
#X msg 852 477 87.31;
#X msg 907 477 110;
#X msg 1017 479 82.41;
#X msg 1062 480 98;
#X msg 1117 480 123.47;
#X msg 1227 476 87.31;
#X msg 1283 474 110;
#X msg 1343 477 130.81;
#X text 550 250 Bass Melody KEY OF A Minor;
#X obj 219 433 random3;
#X obj 461 423 random3;
#X obj 650 421 random3;
#X obj 867 421 random3;
#X obj 1079 423 random3;
#X obj 1289 419 random3;
#X obj 837 196 inlet;
#X floatatom 756 620 5 0 0 0 - - - 0;
#X obj 756 718 outlet;
#X obj 741 250 Bass_Chord_Selector, f 31;
#X text 162 434 A minor;
#X text 403 423 B minor;
#X text 594 421 C major;
#X text 808 420 D minor;
#X text 1022 422 E minor;
#X text 1233 420 F major;
#X connect 0 0 26 0;
#X connect 1 0 26 0;
#X connect 2 0 26 0;
#X connect 3 0 26 0;
#X connect 4 0 26 0;
#X connect 5 0 26 0;
#X connect 6 0 26 0;
#X connect 7 0 26 0;
#X connect 8 0 26 0;
#X connect 9 0 26 0;
#X connect 10 0 26 0;
#X connect 11 0 26 0;
#X connect 12 0 26 0;
#X connect 13 0 26 0;
#X connect 14 0 26 0;
#X connect 15 0 26 0;
#X connect 16 0 26 0;
#X connect 17 0 26 0;
#X connect 19 0 0 0;
#X connect 19 1 1 0;
#X connect 19 2 2 0;
#X connect 20 0 3 0;
#X connect 20 1 4 0;
#X connect 20 2 5 0;
#X connect 21 0 6 0;
#X connect 21 1 7 0;
#X connect 21 2 8 0;
#X connect 22 0 9 0;
#X connect 22 1 10 0;
#X connect 22 2 11 0;
#X connect 23 0 12 0;
#X connect 23 1 13 0;
#X connect 23 2 14 0;
#X connect 24 0 15 0;
#X connect 24 1 16 0;
#X connect 24 2 17 0;
#X connect 25 0 28 0;
#X connect 26 0 27 0;
#X connect 28 0 19 0;
#X connect 28 1 20 0;
#X connect 28 2 21 0;
#X connect 28 3 22 0;
#X connect 28 4 23 0;
#X connect 28 5 24 0;
