#N canvas -2202 129 1941 438 12;
#X obj 219 433 random4;
#X obj 461 423 random4;
#X obj 650 421 random4;
#X obj 867 421 random4;
#X obj 1079 423 random4;
#X obj 1289 419 random4;
#X msg 162 489 110;
#X msg 207 490 130.81;
#X msg 260 490 164.81;
#X msg 314 490 196;
#X text 275 421 B minor seventh flat five;
#X text 105 433 A minor seventh;
#X msg 367 478 123.47;
#X msg 423 478 146.83;
#X msg 475 478 174.61;
#X msg 530 478 220;
#X text 529 421 C major seventh;
#X msg 584 478 65.41;
#X msg 635 479 82.41;
#X msg 688 480 98;
#X msg 743 480 123.47;
#X msg 799 477 73.42;
#X msg 852 477 87.31;
#X msg 907 477 110;
#X msg 962 477 130.81;
#X text 747 421 D minor seventh;
#X text 965 423 E minor seventh;
#X msg 1017 479 82.41;
#X msg 1062 480 98;
#X msg 1117 480 123.47;
#X msg 1174 481 146.83;
#X text 1169 418 F major seventh;
#X msg 1227 476 87.31;
#X msg 1283 474 110;
#X msg 1343 477 130.81;
#X msg 1398 476 164.81;
#X obj 1306 551 * 4;
#X obj 1086 542 * 4;
#X obj 874 544 * 4;
#X obj 653 539 * 4;
#X obj 465 549 * 4;
#X obj 210 544 * 4;
#X obj 822 193 inlet;
#X floatatom 777 689 5 0 0 0 - - - 0;
#X obj 778 819 outlet;
#X text 507 276 Middle Melody KEY OF A Minor;
#X obj 705 275 Middle_Chord_Selector, f 31;
#X connect 0 0 6 0;
#X connect 0 1 7 0;
#X connect 0 2 8 0;
#X connect 0 3 9 0;
#X connect 1 0 12 0;
#X connect 1 1 13 0;
#X connect 1 2 14 0;
#X connect 1 3 15 0;
#X connect 2 0 17 0;
#X connect 2 1 18 0;
#X connect 2 2 19 0;
#X connect 2 3 20 0;
#X connect 3 0 21 0;
#X connect 3 1 22 0;
#X connect 3 2 23 0;
#X connect 3 3 24 0;
#X connect 4 0 27 0;
#X connect 4 1 28 0;
#X connect 4 2 29 0;
#X connect 4 3 30 0;
#X connect 5 0 32 0;
#X connect 5 1 33 0;
#X connect 5 2 34 0;
#X connect 5 3 35 0;
#X connect 6 0 41 0;
#X connect 7 0 41 0;
#X connect 8 0 41 0;
#X connect 9 0 41 0;
#X connect 12 0 40 0;
#X connect 13 0 40 0;
#X connect 14 0 40 0;
#X connect 15 0 40 0;
#X connect 17 0 39 0;
#X connect 18 0 39 0;
#X connect 19 0 39 0;
#X connect 20 0 39 0;
#X connect 21 0 38 0;
#X connect 22 0 38 0;
#X connect 23 0 38 0;
#X connect 24 0 38 0;
#X connect 27 0 37 0;
#X connect 28 0 37 0;
#X connect 29 0 37 0;
#X connect 30 0 37 0;
#X connect 32 0 36 0;
#X connect 33 0 36 0;
#X connect 34 0 36 0;
#X connect 35 0 36 0;
#X connect 36 0 43 0;
#X connect 37 0 43 0;
#X connect 38 0 43 0;
#X connect 39 0 43 0;
#X connect 40 0 43 0;
#X connect 41 0 43 0;
#X connect 42 0 46 0;
#X connect 43 0 44 0;
#X connect 46 0 0 0;
#X connect 46 1 1 0;
#X connect 46 2 2 0;
#X connect 46 3 3 0;
#X connect 46 4 4 0;
#X connect 46 5 5 0;
