#N canvas -1999 245 1406 300 12;
#X obj 550 136 random3;
#X text 485 134 E major;
#X msg 492 193 82.41;
#X msg 543 192 103.83;
#X msg 599 192 123.47;
#X obj 890 134 random3;
#X text 825 132 G# minor;
#X msg 833 191 103.83;
#X msg 886 191 123.47;
#X msg 941 191 155.56;
#X obj 222 137 random3;
#X text 157 135 C# minor;
#X msg 165 194 69.3;
#X msg 218 194 82.41;
#X msg 276 194 103.83;
#X obj 75 137 random3;
#X text 10 135 B major;
#X msg 18 194 123.47;
#X msg 72 194 155.56;
#X msg 129 195 185;
#X obj 396 138 random3;
#X msg 389 194 92.5;
#X msg 338 194 77.78;
#X text 331 136 D# minor;
#X msg 436 193 116.54;
#X obj 722 134 random3;
#X msg 665 191 92.5;
#X msg 771 190 138.59, f 7;
#X text 657 132 F# major;
#X msg 715 190 116.54;
#X floatatom 499 341 5 0 0 0 - - - 0;
#X obj 499 439 outlet;
#X text 423 30 KEY OF B MAJOR;
#X obj 626 -24 inlet;
#X obj 530 30 Bass_Chord_Selector, f 31;
#X connect 0 0 2 0;
#X connect 0 1 3 0;
#X connect 0 2 4 0;
#X connect 2 0 30 0;
#X connect 3 0 30 0;
#X connect 4 0 30 0;
#X connect 5 0 7 0;
#X connect 5 1 8 0;
#X connect 5 2 9 0;
#X connect 7 0 30 0;
#X connect 8 0 30 0;
#X connect 9 0 30 0;
#X connect 10 0 12 0;
#X connect 10 1 13 0;
#X connect 10 2 14 0;
#X connect 12 0 30 0;
#X connect 13 0 30 0;
#X connect 14 0 30 0;
#X connect 15 0 17 0;
#X connect 15 1 18 0;
#X connect 15 2 19 0;
#X connect 17 0 30 0;
#X connect 18 0 30 0;
#X connect 19 0 30 0;
#X connect 20 0 22 0;
#X connect 20 1 21 0;
#X connect 20 2 24 0;
#X connect 21 0 30 0;
#X connect 22 0 30 0;
#X connect 24 0 30 0;
#X connect 25 0 26 0;
#X connect 25 1 29 0;
#X connect 25 2 27 0;
#X connect 26 0 30 0;
#X connect 27 0 30 0;
#X connect 29 0 30 0;
#X connect 30 0 31 0;
#X connect 33 0 34 0;
#X connect 34 0 15 0;
#X connect 34 1 10 0;
#X connect 34 2 20 0;
#X connect 34 3 0 0;
#X connect 34 4 25 0;
#X connect 34 5 5 0;
