#N canvas -1990 -1 1450 300 12;
#X obj 208 176 random4;
#X msg 151 234 493.88;
#X msg 262 234 739.99;
#X text 599 65 KEY OF B;
#X msg 205 234 622.25;
#X msg 318 234 932.33;
#X text 94 178 B major seventh;
#X obj 1332 190 random4;
#X text 1216 189 G# minor seventh;
#X msg 1251 242 415.3;
#X msg 1296 241 493.88;
#X msg 1348 241 622.25;
#X msg 1402 241 739.99;
#X obj 435 177 random4;
#X text 314 177 C# minor seventh;
#X msg 372 234 277.18;
#X msg 429 234 329.63;
#X msg 485 234 415.3;
#X msg 542 237 493.88;
#X obj 902 184 random4;
#X msg 818 239 329.63;
#X msg 873 239 415.3;
#X msg 920 239 493.88;
#X text 770 185 E dominant seventh;
#X msg 971 239 622.25;
#X obj 1122 189 random4;
#X msg 1027 239 369.99;
#X msg 1137 240 554.37;
#X msg 1189 241 659.25;
#X text 980 188 F# dominant seventh;
#X msg 1083 240 466.16;
#X obj 686 184 random4;
#X text 568 184 D# minor seventh;
#X msg 605 238 311.13;
#X msg 659 238 369.99;
#X msg 711 238 466.16;
#X msg 764 239 554.37;
#X text 498 65 UPPER MELODY;
#X obj 256 293 * 2, f 4;
#X obj 435 318 * 2;
#X obj 908 305 * 2;
#X obj 1123 296 * 2;
#X obj 1321 300 * 2;
#X obj 681 308 * 2;
#X obj 783 -18 inlet;
#X floatatom 786 403 5 0 0 0 - - - 0;
#X obj 791 471 outlet;
#X obj 666 64 Upper_Chord_Selector, f 31;
#X connect 0 0 1 0;
#X connect 0 1 4 0;
#X connect 0 2 2 0;
#X connect 0 3 5 0;
#X connect 1 0 38 0;
#X connect 2 0 38 0;
#X connect 4 0 38 0;
#X connect 5 0 38 0;
#X connect 7 0 9 0;
#X connect 7 1 10 0;
#X connect 7 2 11 0;
#X connect 7 3 12 0;
#X connect 9 0 42 0;
#X connect 10 0 42 0;
#X connect 11 0 42 0;
#X connect 12 0 42 0;
#X connect 13 0 15 0;
#X connect 13 1 16 0;
#X connect 13 2 17 0;
#X connect 13 3 18 0;
#X connect 15 0 39 0;
#X connect 16 0 39 0;
#X connect 17 0 39 0;
#X connect 18 0 39 0;
#X connect 19 0 20 0;
#X connect 19 1 21 0;
#X connect 19 2 22 0;
#X connect 19 3 24 0;
#X connect 20 0 40 0;
#X connect 21 0 40 0;
#X connect 22 0 40 0;
#X connect 24 0 40 0;
#X connect 25 0 26 0;
#X connect 25 1 30 0;
#X connect 25 2 27 0;
#X connect 25 3 28 0;
#X connect 26 0 41 0;
#X connect 27 0 41 0;
#X connect 28 0 41 0;
#X connect 30 0 41 0;
#X connect 31 0 33 0;
#X connect 31 1 34 0;
#X connect 31 2 35 0;
#X connect 31 3 36 0;
#X connect 33 0 43 0;
#X connect 34 0 43 0;
#X connect 35 0 43 0;
#X connect 36 0 43 0;
#X connect 38 0 45 0;
#X connect 39 0 45 0;
#X connect 40 0 45 0;
#X connect 41 0 45 0;
#X connect 42 0 45 0;
#X connect 43 0 45 0;
#X connect 44 0 47 0;
#X connect 45 0 46 0;
#X connect 47 0 0 0;
#X connect 47 1 13 0;
#X connect 47 2 31 0;
#X connect 47 3 19 0;
#X connect 47 4 25 0;
#X connect 47 5 7 0;
