#N canvas -2320 377 2178 300 12;
#X obj 219 433 random4;
#X obj 461 423 random4;
#X obj 650 421 random4;
#X obj 867 421 random4;
#X obj 1079 423 random4;
#X obj 1289 419 random4;
#X obj 210 544 * 8;
#X obj 465 549 * 8;
#X obj 653 539 * 8;
#X obj 874 544 * 8;
#X obj 1086 542 * 8;
#X obj 1306 551 * 8;
#X text 466 300 Upper Melody KEY OF B Minor;
#X msg 162 490 123.47;
#X msg 207 490 146.83;
#X msg 260 490 185;
#X msg 314 490 220;
#X text 105 433 B minor seventh;
#X text 275 421 C# minor seventh flat five;
#X msg 379 477 69.3;
#X msg 422 478 82.41;
#X msg 475 478 98;
#X msg 529 478 123.47;
#X text 529 421 D major seventh;
#X msg 584 478 73.42;
#X msg 635 479 92.5;
#X msg 688 480 110;
#X msg 743 480 138.59;
#X text 746 421 E minor seventh;
#X msg 799 477 82.41;
#X msg 852 477 98;
#X msg 906 478 123.47;
#X msg 962 477 146.83;
#X text 957 424 F# minor seventh;
#X msg 1017 479 92.5;
#X msg 1062 480 110;
#X msg 1117 480 138.59;
#X msg 1174 481 164.81;
#X text 1169 418 G major seventh;
#X msg 1227 476 98;
#X msg 1282 475 123.47;
#X msg 1343 476 146.83;
#X msg 1398 476 185;
#X obj 782 217 inlet;
#X floatatom 768 654 5 0 0 0 - - - 0;
#X obj 768 752 outlet;
#X obj 665 299 Upper_Chord_Selector, f 31;
#X connect 0 0 13 0;
#X connect 0 1 14 0;
#X connect 0 2 15 0;
#X connect 0 3 16 0;
#X connect 1 0 19 0;
#X connect 1 1 20 0;
#X connect 1 2 21 0;
#X connect 1 3 22 0;
#X connect 2 0 24 0;
#X connect 2 1 25 0;
#X connect 2 2 26 0;
#X connect 2 3 27 0;
#X connect 3 0 29 0;
#X connect 3 1 30 0;
#X connect 3 2 31 0;
#X connect 3 3 32 0;
#X connect 4 0 34 0;
#X connect 4 1 35 0;
#X connect 4 2 36 0;
#X connect 4 3 37 0;
#X connect 5 0 39 0;
#X connect 5 1 40 0;
#X connect 5 2 41 0;
#X connect 5 3 42 0;
#X connect 6 0 44 0;
#X connect 7 0 44 0;
#X connect 8 0 44 0;
#X connect 9 0 44 0;
#X connect 10 0 44 0;
#X connect 11 0 44 0;
#X connect 13 0 6 0;
#X connect 14 0 6 0;
#X connect 15 0 6 0;
#X connect 16 0 6 0;
#X connect 19 0 7 0;
#X connect 20 0 7 0;
#X connect 21 0 7 0;
#X connect 22 0 7 0;
#X connect 24 0 8 0;
#X connect 25 0 8 0;
#X connect 26 0 8 0;
#X connect 27 0 8 0;
#X connect 29 0 9 0;
#X connect 30 0 9 0;
#X connect 31 0 9 0;
#X connect 32 0 9 0;
#X connect 34 0 10 0;
#X connect 35 0 10 0;
#X connect 36 0 10 0;
#X connect 37 0 10 0;
#X connect 39 0 11 0;
#X connect 40 0 11 0;
#X connect 41 0 11 0;
#X connect 42 0 11 0;
#X connect 43 0 46 0;
#X connect 44 0 45 0;
#X connect 46 0 0 0;
#X connect 46 1 1 0;
#X connect 46 2 2 0;
#X connect 46 3 3 0;
#X connect 46 4 4 0;
#X connect 46 5 5 0;
