#N canvas -2238 157 2178 300 12;
#X obj 219 433 random4;
#X msg 162 490 123.47;
#X msg 207 490 146.83;
#X msg 260 490 185;
#X msg 379 477 69.3;
#X msg 422 478 82.41;
#X msg 475 478 98;
#X msg 584 478 73.42;
#X msg 635 479 92.5;
#X msg 688 480 110;
#X msg 799 477 82.41;
#X msg 852 477 98;
#X msg 906 478 123.47;
#X msg 1017 479 92.5;
#X msg 1062 480 110;
#X msg 1117 480 138.59;
#X msg 1227 476 98;
#X msg 1282 475 123.47;
#X msg 1343 476 146.83;
#X obj 1289 419 random3;
#X obj 1079 423 random3;
#X obj 867 421 random3;
#X obj 650 421 random3;
#X obj 461 423 random3;
#X obj 766 246 inlet;
#X floatatom 757 603 5 0 0 0 - - - 0;
#X obj 757 701 outlet;
#X text 466 300 Bass Melody KEY OF B Minor;
#X obj 670 300 Bass_Chord_Selector, f 31;
#X text 156 431 B minor;
#X text 364 422 C# diminished;
#X text 590 422 D major;
#X text 806 420 E minor;
#X text 1014 423 F# minor;
#X text 1228 419 G major;
#X connect 0 0 1 0;
#X connect 0 1 2 0;
#X connect 0 2 3 0;
#X connect 1 0 25 0;
#X connect 2 0 25 0;
#X connect 3 0 25 0;
#X connect 4 0 25 0;
#X connect 5 0 25 0;
#X connect 6 0 25 0;
#X connect 7 0 25 0;
#X connect 8 0 25 0;
#X connect 9 0 25 0;
#X connect 10 0 25 0;
#X connect 11 0 25 0;
#X connect 12 0 25 0;
#X connect 13 0 25 0;
#X connect 14 0 25 0;
#X connect 15 0 25 0;
#X connect 16 0 25 0;
#X connect 17 0 25 0;
#X connect 18 0 25 0;
#X connect 19 0 16 0;
#X connect 19 1 17 0;
#X connect 19 2 18 0;
#X connect 20 0 13 0;
#X connect 20 1 14 0;
#X connect 20 2 15 0;
#X connect 21 0 10 0;
#X connect 21 1 11 0;
#X connect 21 2 12 0;
#X connect 22 0 7 0;
#X connect 22 1 8 0;
#X connect 22 2 9 0;
#X connect 23 0 4 0;
#X connect 23 1 5 0;
#X connect 23 2 6 0;
#X connect 24 0 28 0;
#X connect 25 0 26 0;
#X connect 28 0 0 0;
#X connect 28 1 23 0;
#X connect 28 2 22 0;
#X connect 28 3 21 0;
#X connect 28 4 20 0;
#X connect 28 5 19 0;
