#N canvas -1565 317 898 300 12;
#X obj 371 229 1;
#X floatatom 506 315 5 0 0 0 - - - 0;
#X obj 506 372 outlet;
#X obj 524 40 \$1;
#X floatatom 617 22 5 0 0 0 - - - 0;
#X obj 360 162 select 0;
#X obj 425 163 select 1;
#X obj 491 163 select 2;
#X obj 554 163 select 3;
#X obj 618 163 select 4;
#X obj 682 163 select 5;
#X obj 512 76 expr if($f1 > 5 \, 5 \, $f1);
#X obj 617 0 receive temperatureOffset;
#X obj 430 233 1.001;
#X obj 487 233 1.002;
#X obj 559 234 1.003;
#X obj 614 234 1.004;
#X obj 682 234 1.005;
#X connect 0 0 1 0;
#X connect 1 0 2 0;
#X connect 3 0 11 0;
#X connect 4 0 3 0;
#X connect 5 0 0 0;
#X connect 6 0 13 0;
#X connect 7 0 14 0;
#X connect 8 0 15 0;
#X connect 9 0 16 0;
#X connect 10 0 17 0;
#X connect 11 0 5 0;
#X connect 11 0 6 0;
#X connect 11 0 7 0;
#X connect 11 0 8 0;
#X connect 11 0 9 0;
#X connect 11 0 10 0;
#X connect 12 0 4 0;
#X connect 13 0 1 0;
#X connect 14 0 1 0;
#X connect 15 0 1 0;
#X connect 16 0 1 0;
#X connect 17 0 1 0;
