#N canvas -1984 5 1873 522 12;
#X obj 150 163 select 0;
#X obj 245 163 select 1;
#X obj 359 164 select 2;
#X obj 469 161 select 3;
#X obj 565 162 select 4;
#X obj 691 161 select 5;
#X obj 797 161 select 6;
#X obj 997 162 select 8;
#X obj 904 161 select 7;
#X obj 1096 162 select 9;
#X obj 1194 162 select 10;
#X obj 1302 162 select 11;
#X obj 807 478 outlet;
#X obj 143 230 bng 15 250 50 0 empty empty empty 17 7 0 10 #fcfcfc
#000000 #000000;
#X obj 377 381 D_Major_Bass;
#X obj 154 378 C_Major_Bass;
#X obj 251 378 C_Minor_Bass;
#X obj 229 225 bng 15 250 50 0 empty empty empty 17 7 0 10 #fcfcfc
#000000 #000000;
#X obj 361 221 bng 15 250 50 0 empty empty empty 17 7 0 10 #fcfcfc
#000000 #000000;
#X obj 484 381 D_Minor_Bass;
#X obj 586 384 E_Major_Bass;
#X obj 694 382 E_Minor_Bass;
#X obj 473 221 bng 15 250 50 0 empty empty empty 17 7 0 10 #fcfcfc
#000000 #000000;
#X obj 577 222 bng 15 250 50 0 empty empty empty 17 7 0 10 #fcfcfc
#000000 #000000;
#X obj 709 222 bng 15 250 50 0 empty empty empty 17 7 0 10 #fcfcfc
#000000 #000000;
#X obj 825 223 bng 15 250 50 0 empty empty empty 17 7 0 10 #fcfcfc
#000000 #000000;
#X obj 927 223 bng 15 250 50 0 empty empty empty 17 7 0 10 #fcfcfc
#000000 #000000;
#X obj 1016 226 bng 15 250 50 0 empty empty empty 17 7 0 10 #fcfcfc
#000000 #000000;
#X obj 1105 226 bng 15 250 50 0 empty empty empty 17 7 0 10 #fcfcfc
#000000 #000000;
#X obj 1199 224 bng 15 250 50 0 empty empty empty 17 7 0 10 #fcfcfc
#000000 #000000;
#X obj 1303 224 bng 15 250 50 0 empty empty empty 17 7 0 10 #fcfcfc
#000000 #000000;
#X obj 818 380 F_Major_Bass;
#X obj 912 379 F_Minor_Bass;
#X obj 1014 379 G_Major_Bass;
#X obj 1112 379 G_Minor_Bass;
#X obj 1215 382 A_Major_Bass;
#X obj 1311 381 A_Minor_Bass;
#X obj 1391 163 select 12;
#X obj 1485 164 select 13;
#X obj 1412 381 B_Major_Bass;
#X obj 1508 380 B_Minor_Bass;
#X obj 1408 223 bng 15 250 50 0 empty empty empty 17 7 0 10 #fcfcfc
#000000 #000000;
#X obj 1503 222 bng 15 250 50 0 empty empty empty 17 7 0 10 #fcfcfc
#000000 #000000;
#X obj 842 -24 inlet;
#X obj 967 -9 receive keyScale;
#X obj 874 31 \$1;
#X floatatom 967 15 5 0 0 0 - - - 0;
#X connect 0 0 13 0;
#X connect 1 0 17 0;
#X connect 2 0 18 0;
#X connect 3 0 22 0;
#X connect 4 0 23 0;
#X connect 5 0 24 0;
#X connect 6 0 25 0;
#X connect 7 0 27 0;
#X connect 8 0 26 0;
#X connect 9 0 28 0;
#X connect 10 0 29 0;
#X connect 11 0 30 0;
#X connect 13 0 15 0;
#X connect 14 0 12 0;
#X connect 15 0 12 0;
#X connect 16 0 12 0;
#X connect 17 0 16 0;
#X connect 18 0 14 0;
#X connect 19 0 12 0;
#X connect 20 0 12 0;
#X connect 21 0 12 0;
#X connect 22 0 19 0;
#X connect 23 0 20 0;
#X connect 24 0 21 0;
#X connect 25 0 31 0;
#X connect 26 0 32 0;
#X connect 27 0 33 0;
#X connect 28 0 34 0;
#X connect 29 0 35 0;
#X connect 30 0 36 0;
#X connect 31 0 12 0;
#X connect 32 0 12 0;
#X connect 33 0 12 0;
#X connect 34 0 12 0;
#X connect 35 0 12 0;
#X connect 36 0 12 0;
#X connect 37 0 41 0;
#X connect 38 0 42 0;
#X connect 39 0 12 0;
#X connect 40 0 12 0;
#X connect 41 0 39 0;
#X connect 42 0 40 0;
#X connect 43 0 45 0;
#X connect 44 0 46 0;
#X connect 45 0 0 0;
#X connect 45 0 1 0;
#X connect 45 0 2 0;
#X connect 45 0 3 0;
#X connect 45 0 4 0;
#X connect 45 0 5 0;
#X connect 45 0 6 0;
#X connect 45 0 8 0;
#X connect 45 0 7 0;
#X connect 45 0 9 0;
#X connect 45 0 10 0;
#X connect 45 0 11 0;
#X connect 45 0 37 0;
#X connect 45 0 38 0;
#X connect 46 0 45 1;
