#N canvas -1589 190 831 300 12;
#X obj 746 193 sel 1;
#X obj 702 194 sel 0;
#X obj 790 193 sel 2;
#X obj 833 193 sel 3;
#X obj 876 193 sel 4;
#X obj 919 193 sel 5;
#X obj 667 238 outlet;
#X obj 718 239 outlet;
#X obj 769 238 outlet;
#X obj 820 237 outlet;
#X obj 872 237 outlet;
#X obj 924 237 outlet;
#X obj 798 -2 inlet;
#X obj 798 36 bng 15 250 50 0 empty empty empty 17 7 0 10 #fcfcfc #000000
#000000;
#X obj 820 97 \$1;
#X floatatom 859 53 5 0 0 0 - - - 0;
#X obj 867 18 receive bassChord;
#X connect 0 0 7 0;
#X connect 1 0 6 0;
#X connect 2 0 8 0;
#X connect 3 0 9 0;
#X connect 4 0 10 0;
#X connect 5 0 11 0;
#X connect 12 0 13 0;
#X connect 13 0 14 0;
#X connect 14 0 1 0;
#X connect 14 0 0 0;
#X connect 14 0 2 0;
#X connect 14 0 3 0;
#X connect 14 0 4 0;
#X connect 14 0 5 0;
#X connect 15 0 14 1;
#X connect 16 0 15 0;
