#N canvas -1928 -350 1440 594 12;
#X obj 217 423 random4;
#X text 102 424 C major seventh;
#X text 287 421 D minor seventh;
#X text 510 422 E minor seventh;
#X text 731 418 F major seventh;
#X obj 403 422 random4;
#X obj 626 423 random4;
#X obj 848 420 random4;
#X text 1125 422 A minor seventh;
#X msg 149 479 261.63;
#X msg 203 479 329.63;
#X msg 257 478 392;
#X msg 289 478 493.88;
#X msg 342 478 293.66;
#X msg 396 478 349.23;
#X msg 449 477 440;
#X msg 482 477 523.25;
#X msg 550 476 329.63;
#X msg 605 476 392;
#X msg 641 477 493.88;
#X msg 698 477 587.33;
#X msg 791 477 349.23;
#X msg 845 478 440;
#X msg 878 479 523.25;
#X msg 932 479 629.25;
#X obj 1053 421 random4;
#X obj 1239 420 random4;
#X text 920 421 G dominant seventh;
#X msg 990 478 392;
#X msg 1023 478 493.88;
#X msg 1075 478 587.33;
#X msg 1128 477 698.46;
#X msg 1182 478 440;
#X msg 1232 477 523.25;
#X msg 1293 478 629.25;
#X msg 1349 479 783.99;
#X obj 213 549 * 2, f 4;
#X obj 392 574 * 2;
#X obj 640 588 * 2;
#X obj 865 561 * 2;
#X obj 1080 552 * 2;
#X obj 1278 556 * 2;
#X text 533 307 KEY OF C Major;
#X obj 685 253 inlet;
#X floatatom 754 717 5 0 0 0 - - - 0;
#X obj 754 815 outlet;
#X text 432 306 Upper MELODY;
#X obj 642 307 Upper_Chord_Selector, f 31;
#X connect 0 0 9 0;
#X connect 0 1 10 0;
#X connect 0 2 11 0;
#X connect 0 3 12 0;
#X connect 5 0 13 0;
#X connect 5 1 14 0;
#X connect 5 2 15 0;
#X connect 5 3 16 0;
#X connect 6 0 17 0;
#X connect 6 1 18 0;
#X connect 6 2 19 0;
#X connect 6 3 20 0;
#X connect 7 0 21 0;
#X connect 7 1 22 0;
#X connect 7 2 23 0;
#X connect 7 3 24 0;
#X connect 9 0 36 0;
#X connect 10 0 36 0;
#X connect 11 0 36 0;
#X connect 12 0 36 0;
#X connect 13 0 37 0;
#X connect 14 0 37 0;
#X connect 15 0 37 0;
#X connect 16 0 37 0;
#X connect 17 0 38 0;
#X connect 18 0 38 0;
#X connect 19 0 38 0;
#X connect 20 0 38 0;
#X connect 21 0 39 0;
#X connect 22 0 39 0;
#X connect 23 0 39 0;
#X connect 24 0 39 0;
#X connect 25 0 28 0;
#X connect 25 1 29 0;
#X connect 25 2 30 0;
#X connect 25 3 31 0;
#X connect 26 0 32 0;
#X connect 26 1 33 0;
#X connect 26 2 34 0;
#X connect 26 3 35 0;
#X connect 28 0 40 0;
#X connect 29 0 40 0;
#X connect 30 0 40 0;
#X connect 31 0 40 0;
#X connect 32 0 41 0;
#X connect 33 0 41 0;
#X connect 34 0 41 0;
#X connect 35 0 41 0;
#X connect 36 0 44 0;
#X connect 37 0 44 0;
#X connect 38 0 44 0;
#X connect 39 0 44 0;
#X connect 40 0 44 0;
#X connect 41 0 44 0;
#X connect 43 0 47 0;
#X connect 44 0 45 0;
#X connect 47 0 0 0;
#X connect 47 1 5 0;
#X connect 47 2 6 0;
#X connect 47 3 7 0;
#X connect 47 4 25 0;
#X connect 47 5 26 0;
