#N canvas -1829 -440 1440 927 12;
#X obj 482 434 random3;
#X text 417 432 C major;
#X msg 425 491 65.41;
#X msg 475 490 82.41;
#X msg 522 489 98;
#X obj 652 431 random3;
#X text 587 429 D minor;
#X obj 794 428 random3;
#X obj 964 425 random3;
#X msg 595 488 73.42;
#X msg 645 487 87.31;
#X msg 692 486 110;
#X text 729 426 E minor;
#X text 899 423 F major;
#X msg 907 482 87.31;
#X msg 957 481 110;
#X msg 1004 480 130.81;
#X obj 1119 422 random3;
#X obj 1289 419 random3;
#X text 1054 420 G major;
#X text 1224 417 A minor;
#X msg 1062 479 98;
#X msg 1102 479 123.47;
#X msg 1157 479 146.83;
#X msg 1232 476 110;
#X msg 1282 475 130.81;
#X msg 1343 476 164.81;
#X msg 737 485 82.41;
#X msg 787 484 98;
#X msg 834 483 123.47;
#X text 654 374 KEY OF C Major;
#X obj 836 300 inlet;
#X floatatom 862 546 5 0 0 0 - - - 0;
#X obj 862 581 outlet;
#X obj 763 375 Bass_Chord_Selector, f 31;
#X connect 0 0 2 0;
#X connect 0 1 3 0;
#X connect 0 2 4 0;
#X connect 2 0 32 0;
#X connect 3 0 32 0;
#X connect 4 0 32 0;
#X connect 5 0 9 0;
#X connect 5 1 10 0;
#X connect 5 2 11 0;
#X connect 7 0 27 0;
#X connect 7 1 28 0;
#X connect 7 2 29 0;
#X connect 8 0 14 0;
#X connect 8 1 15 0;
#X connect 8 2 16 0;
#X connect 9 0 32 0;
#X connect 10 0 32 0;
#X connect 11 0 32 0;
#X connect 14 0 32 0;
#X connect 15 0 32 0;
#X connect 16 0 32 0;
#X connect 17 0 21 0;
#X connect 17 1 22 0;
#X connect 17 2 23 0;
#X connect 18 0 24 0;
#X connect 18 1 25 0;
#X connect 18 2 26 0;
#X connect 21 0 32 0;
#X connect 22 0 32 0;
#X connect 23 0 32 0;
#X connect 24 0 32 0;
#X connect 25 0 32 0;
#X connect 26 0 32 0;
#X connect 27 0 32 0;
#X connect 28 0 32 0;
#X connect 29 0 32 0;
#X connect 31 0 34 0;
#X connect 32 0 33 0;
#X connect 34 0 0 0;
#X connect 34 1 5 0;
#X connect 34 2 7 0;
#X connect 34 3 8 0;
#X connect 34 4 17 0;
#X connect 34 5 18 0;
