#N canvas -1921 -318 1440 580 12;
#X msg 162 490 65.41;
#X msg 259 488 98;
#X msg 390 478 73.42;
#X msg 439 478 87.31;
#X msg 806 476 87.31;
#X msg 906 478 130.81;
#X msg 1022 480 98;
#X msg 1117 480 146.83;
#X msg 1282 475 130.81;
#X msg 643 477 98;
#X msg 212 489 77.78;
#X msg 487 478 103.83;
#X msg 593 478 77.78;
#X msg 679 477 116.54;
#X msg 852 477 103.83;
#X msg 1062 480 116.54;
#X msg 1227 476 103.83;
#X msg 1343 476 155.56;
#X text 456 300 Middle Melody KEY OF C Minor;
#X obj 210 544 * 4;
#X obj 465 549 * 4;
#X obj 653 539 * 4;
#X obj 874 544 * 4;
#X obj 1086 542 * 4;
#X obj 1306 551 * 4;
#X msg 293 489 116.54;
#X msg 539 479 130.81;
#X obj 219 433 random4;
#X obj 461 423 random4;
#X obj 650 421 random4;
#X obj 867 421 random4;
#X obj 1079 423 random4;
#X obj 1289 419 random4;
#X text 105 433 C minor seventh;
#X text 243 418 D Diminished seventh flat five;
#X text 529 421 Eb major seventh;
#X text 755 422 F minor seventh;
#X text 965 423 G minor seventh;
#X text 1169 418 Ab major seventh;
#X msg 736 477 146.83;
#X msg 962 477 155.56;
#X msg 1175 481 174.61;
#X msg 1399 477 196;
#X floatatom 725 663 5 0 0 0 - - - 0;
#X obj 722 755 outlet;
#X obj 776 218 inlet;
#X obj 659 300 Middle_Chord_Selector, f 31;
#X connect 0 0 19 0;
#X connect 1 0 19 0;
#X connect 2 0 20 0;
#X connect 3 0 20 0;
#X connect 4 0 22 0;
#X connect 5 0 22 0;
#X connect 6 0 23 0;
#X connect 7 0 23 0;
#X connect 8 0 24 0;
#X connect 9 0 21 0;
#X connect 10 0 19 0;
#X connect 11 0 20 0;
#X connect 12 0 21 0;
#X connect 13 0 21 0;
#X connect 14 0 22 0;
#X connect 15 0 23 0;
#X connect 16 0 24 0;
#X connect 17 0 24 0;
#X connect 19 0 43 0;
#X connect 20 0 43 0;
#X connect 21 0 43 0;
#X connect 22 0 43 0;
#X connect 23 0 43 0;
#X connect 24 0 43 0;
#X connect 25 0 19 0;
#X connect 26 0 20 0;
#X connect 27 0 0 0;
#X connect 27 1 10 0;
#X connect 27 2 1 0;
#X connect 27 3 25 0;
#X connect 28 0 2 0;
#X connect 28 1 3 0;
#X connect 28 2 11 0;
#X connect 28 3 26 0;
#X connect 29 0 12 0;
#X connect 29 1 9 0;
#X connect 29 2 13 0;
#X connect 29 3 39 0;
#X connect 30 0 4 0;
#X connect 30 1 14 0;
#X connect 30 2 5 0;
#X connect 30 3 40 0;
#X connect 31 0 6 0;
#X connect 31 1 15 0;
#X connect 31 2 7 0;
#X connect 31 3 41 0;
#X connect 32 0 16 0;
#X connect 32 1 8 0;
#X connect 32 2 17 0;
#X connect 32 3 42 0;
#X connect 39 0 21 0;
#X connect 40 0 22 0;
#X connect 41 0 23 0;
#X connect 42 0 24 0;
#X connect 43 0 44 0;
#X connect 45 0 46 0;
#X connect 46 0 27 0;
#X connect 46 1 28 0;
#X connect 46 2 29 0;
#X connect 46 3 30 0;
#X connect 46 4 31 0;
#X connect 46 5 32 0;
