#N canvas -1857 -156 1440 580 12;
#X obj 482 434 random3;
#X msg 425 491 65.41;
#X msg 522 489 98;
#X obj 652 431 random3;
#X obj 794 428 random3;
#X obj 964 425 random3;
#X msg 582 486 73.42;
#X msg 631 486 87.31;
#X msg 903 480 87.31;
#X msg 1003 482 130.81;
#X obj 1119 422 random3;
#X obj 1289 419 random3;
#X msg 1062 479 98;
#X msg 1157 479 146.83;
#X msg 1282 475 130.81;
#X msg 787 484 98;
#X msg 475 490 77.78;
#X msg 679 486 103.83;
#X msg 737 485 77.78;
#X text 417 432 C minor;
#X text 560 430 D Diminished;
#X text 660 262 KEY OF C Minor;
#X text 729 426 Eb major;
#X msg 829 487 116.54;
#X text 899 423 F minor;
#X msg 949 481 103.83;
#X text 1054 420 G minor;
#X text 1224 417 Ab major;
#X msg 1102 479 116.54;
#X msg 1227 476 103.83;
#X msg 1343 476 155.56;
#X obj 887 180 inlet;
#X floatatom 860 601 5 0 0 0 - - - 0;
#X obj 860 699 outlet;
#X obj 770 262 Bass_Chord_Selector, f 31;
#X connect 0 0 1 0;
#X connect 0 1 16 0;
#X connect 0 2 2 0;
#X connect 1 0 32 0;
#X connect 2 0 32 0;
#X connect 3 0 6 0;
#X connect 3 1 7 0;
#X connect 3 2 17 0;
#X connect 4 0 18 0;
#X connect 4 1 15 0;
#X connect 4 2 23 0;
#X connect 5 0 8 0;
#X connect 5 1 25 0;
#X connect 5 2 9 0;
#X connect 6 0 32 0;
#X connect 7 0 32 0;
#X connect 8 0 32 0;
#X connect 9 0 32 0;
#X connect 10 0 12 0;
#X connect 10 1 28 0;
#X connect 10 2 13 0;
#X connect 11 0 29 0;
#X connect 11 1 14 0;
#X connect 11 2 30 0;
#X connect 12 0 32 0;
#X connect 13 0 32 0;
#X connect 14 0 32 0;
#X connect 15 0 32 0;
#X connect 16 0 32 0;
#X connect 17 0 32 0;
#X connect 18 0 32 0;
#X connect 23 0 32 0;
#X connect 25 0 32 0;
#X connect 28 0 32 0;
#X connect 29 0 32 0;
#X connect 30 0 32 0;
#X connect 31 0 34 0;
#X connect 32 0 33 0;
#X connect 34 0 0 0;
#X connect 34 1 3 0;
#X connect 34 2 4 0;
#X connect 34 3 5 0;
#X connect 34 4 10 0;
#X connect 34 5 11 0;
