#N canvas -2192 -284 1658 705 12;
#X obj 592 145 receive ON;
#X obj 696 147 receive 4th_time;
#X obj 696 184 * 2;
#X floatatom 696 233 5 0 0 0 - - - 0;
#X obj 592 251 metro;
#X obj 592 297 bng 15 250 50 0 empty empty empty 17 7 0 10 #fcfcfc
#000000 #000000;
#X obj 592 326 send half_note;
#X obj 352 355 receive ON;
#X obj 456 357 receive 4th_time;
#X floatatom 456 443 5 0 0 0 - - - 0;
#X obj 352 461 metro;
#X obj 352 507 bng 15 250 50 0 empty empty empty 17 7 0 10 #fcfcfc
#000000 #000000;
#X obj 817 147 receive ON;
#X obj 921 149 receive 4th_time;
#X floatatom 921 235 5 0 0 0 - - - 0;
#X obj 817 253 metro;
#X obj 817 299 bng 15 250 50 0 empty empty empty 17 7 0 10 #fcfcfc
#000000 #000000;
#X obj 576 357 receive ON;
#X obj 680 359 receive 4th_time;
#X floatatom 680 445 5 0 0 0 - - - 0;
#X obj 576 463 metro;
#X obj 576 506 bng 15 250 50 0 empty empty empty 17 7 0 10 #fcfcfc
#000000 #000000;
#X obj 921 186 * 1;
#X obj 456 394 / 2;
#X obj 680 396 / 4;
#X obj 817 328 send 4th_note;
#X obj 352 536 send 8th_note;
#X obj 576 531 send 16th_note;
#X obj 352 144 receive ON;
#X obj 456 146 receive 4th_time;
#X floatatom 456 232 5 0 0 0 - - - 0;
#X obj 352 250 metro;
#X obj 352 296 bng 15 250 50 0 empty empty empty 17 7 0 10 #fcfcfc
#000000 #000000;
#X obj 456 183 * 4;
#X obj 456 279 send whole_time;
#X obj 696 280 send half_time;
#X obj 456 490 send 8th_time;
#X obj 680 491 send 16th_time;
#X obj 352 325 send whole_note;
#X connect 0 0 4 0;
#X connect 1 0 2 0;
#X connect 2 0 3 0;
#X connect 3 0 4 1;
#X connect 3 0 35 0;
#X connect 4 0 5 0;
#X connect 5 0 6 0;
#X connect 7 0 10 0;
#X connect 8 0 23 0;
#X connect 9 0 10 1;
#X connect 9 0 36 0;
#X connect 10 0 11 0;
#X connect 11 0 26 0;
#X connect 12 0 15 0;
#X connect 13 0 22 0;
#X connect 14 0 15 1;
#X connect 15 0 16 0;
#X connect 16 0 25 0;
#X connect 17 0 20 0;
#X connect 18 0 24 0;
#X connect 19 0 20 1;
#X connect 19 0 37 0;
#X connect 20 0 21 0;
#X connect 21 0 27 0;
#X connect 22 0 14 0;
#X connect 23 0 9 0;
#X connect 24 0 19 0;
#X connect 28 0 31 0;
#X connect 29 0 33 0;
#X connect 30 0 31 1;
#X connect 30 0 34 0;
#X connect 31 0 32 0;
#X connect 32 0 38 0;
#X connect 33 0 30 0;
