#N canvas -1911 -471 1163 670 12;
#X obj 482 434 random3;
#X obj 774 433 random3;
#X obj 615 434 random3;
#X obj 1061 433 random3;
#X text 551 431 E minor;
#X obj 912 432 random3;
#X obj 1239 436 random3;
#X text 847 430 G major;
#X msg 855 489 98;
#X msg 895 489 123.47;
#X msg 950 489 146.83;
#X text 661 337 KEY OF D MAJOR;
#X text 417 432 D major;
#X text 709 431 F# minor;
#X msg 717 490 92.5;
#X msg 767 489 110;
#X msg 425 491 73.42;
#X msg 475 490 92.5;
#X msg 522 489 110;
#X msg 567 489 82.41;
#X msg 618 490 98;
#X msg 662 490 123.47;
#X msg 803 489 138.59;
#X text 996 431 A major;
#X text 1174 434 B minor;
#X msg 1004 490 110;
#X msg 1054 489 138.59;
#X msg 1114 490 164.81;
#X msg 1182 494 123.47;
#X msg 1236 494 146.83;
#X msg 1292 493 185;
#X obj 790 290 inlet;
#X floatatom 860 601 5 0 0 0 - - - 0;
#X obj 860 699 outlet;
#X obj 771 336 Bass_Chord_Selector, f 31;
#X connect 0 0 16 0;
#X connect 0 1 17 0;
#X connect 0 2 18 0;
#X connect 1 0 14 0;
#X connect 1 1 15 0;
#X connect 1 2 22 0;
#X connect 2 0 19 0;
#X connect 2 1 20 0;
#X connect 2 2 21 0;
#X connect 3 0 25 0;
#X connect 3 1 26 0;
#X connect 3 2 27 0;
#X connect 5 0 8 0;
#X connect 5 1 9 0;
#X connect 5 2 10 0;
#X connect 6 0 28 0;
#X connect 6 1 29 0;
#X connect 6 2 30 0;
#X connect 8 0 32 0;
#X connect 9 0 32 0;
#X connect 10 0 32 0;
#X connect 14 0 32 0;
#X connect 15 0 32 0;
#X connect 16 0 32 0;
#X connect 17 0 32 0;
#X connect 18 0 32 0;
#X connect 19 0 32 0;
#X connect 20 0 32 0;
#X connect 21 0 32 0;
#X connect 22 0 32 0;
#X connect 25 0 32 0;
#X connect 26 0 32 0;
#X connect 27 0 32 0;
#X connect 28 0 32 0;
#X connect 29 0 32 0;
#X connect 30 0 32 0;
#X connect 31 0 34 0;
#X connect 32 0 33 0;
#X connect 34 0 0 0;
#X connect 34 1 2 0;
#X connect 34 2 1 0;
#X connect 34 3 5 0;
#X connect 34 4 3 0;
#X connect 34 5 6 0;
