#N canvas -1922 -342 1585 1004 12;
#X obj 217 423 random4;
#X obj 403 422 random4;
#X obj 626 423 random4;
#X obj 813 419 random4;
#X obj 1053 421 random4;
#X obj 1239 420 random4;
#X text 102 424 D major seventh;
#X msg 140 478 293.66;
#X msg 194 476 369.99;
#X msg 246 476 440;
#X msg 281 477 554.37;
#X text 288 422 E minor seventh;
#X text 645 303 KEY OF D;
#X msg 342 478 329.63;
#X msg 396 478 392;
#X msg 429 478 493.88;
#X msg 482 477 587.33;
#X text 510 422 F# minor seventh;
#X msg 550 476 369.99;
#X msg 605 476 440;
#X msg 641 477 554.37;
#X msg 695 477 659.25;
#X text 696 417 G major seventh;
#X msg 756 476 392;
#X msg 788 476 493.88;
#X msg 843 478 587.33;
#X msg 897 478 739.99;
#X text 920 421 A dominant seventh;
#X msg 955 478 440;
#X msg 999 478 554.37;
#X msg 1075 478 659.25;
#X msg 1127 479 783.99;
#X text 1125 422 B minor seventh;
#X msg 1182 478 493.88;
#X msg 1236 478 587.33;
#X msg 1293 478 739.99;
#X msg 1349 478 880;
#X obj 213 549 * 2, f 4;
#X obj 392 574 * 2;
#X obj 627 575 * 2;
#X obj 865 561 * 2;
#X obj 1080 552 * 2;
#X obj 1278 556 * 2;
#X floatatom 756 716 5 0 0 0 - - - 0;
#X obj 756 814 outlet;
#X obj 844 220 inlet;
#X obj 726 302 Upper_Chord_Selector, f 31;
#X text 545 302 Upper MELODY;
#X connect 0 0 7 0;
#X connect 0 1 8 0;
#X connect 0 2 9 0;
#X connect 0 3 10 0;
#X connect 1 0 13 0;
#X connect 1 1 14 0;
#X connect 1 2 15 0;
#X connect 1 3 16 0;
#X connect 2 0 18 0;
#X connect 2 1 19 0;
#X connect 2 2 20 0;
#X connect 2 3 21 0;
#X connect 3 0 23 0;
#X connect 3 1 24 0;
#X connect 3 2 25 0;
#X connect 3 3 26 0;
#X connect 4 0 28 0;
#X connect 4 1 29 0;
#X connect 4 2 30 0;
#X connect 4 3 31 0;
#X connect 5 0 33 0;
#X connect 5 1 34 0;
#X connect 5 2 35 0;
#X connect 5 3 36 0;
#X connect 7 0 37 0;
#X connect 8 0 37 0;
#X connect 9 0 37 0;
#X connect 10 0 37 0;
#X connect 13 0 38 0;
#X connect 14 0 38 0;
#X connect 15 0 38 0;
#X connect 16 0 38 0;
#X connect 18 0 39 0;
#X connect 19 0 39 0;
#X connect 20 0 39 0;
#X connect 21 0 39 0;
#X connect 23 0 40 0;
#X connect 24 0 40 0;
#X connect 25 0 40 0;
#X connect 26 0 40 0;
#X connect 28 0 41 0;
#X connect 29 0 41 0;
#X connect 30 0 41 0;
#X connect 31 0 41 0;
#X connect 33 0 42 0;
#X connect 34 0 42 0;
#X connect 35 0 42 0;
#X connect 36 0 42 0;
#X connect 37 0 43 0;
#X connect 38 0 43 0;
#X connect 39 0 43 0;
#X connect 40 0 43 0;
#X connect 41 0 43 0;
#X connect 42 0 43 0;
#X connect 43 0 44 0;
#X connect 45 0 46 0;
#X connect 46 0 0 0;
#X connect 46 1 1 0;
#X connect 46 2 2 0;
#X connect 46 3 3 0;
#X connect 46 4 4 0;
#X connect 46 5 5 0;
