#N canvas -2047 -111 1440 580 12;
#X msg 162 490 73.42;
#X msg 211 490 87.31;
#X msg 259 488 110;
#X msg 390 478 82.41;
#X msg 439 478 98;
#X msg 475 478 116.54;
#X msg 593 478 87.31;
#X msg 643 477 110;
#X msg 679 478 130.81;
#X msg 806 476 98;
#X msg 852 477 116.54;
#X msg 906 478 146.83;
#X msg 1022 480 110;
#X msg 1062 480 130.81;
#X msg 1117 480 164.81;
#X msg 1227 476 116.54;
#X msg 1282 475 146.83;
#X msg 1343 476 174.61;
#X text 444 208 BASS Melody KEY OF D Minor;
#X obj 219 433 random3;
#X obj 461 423 random3;
#X obj 650 421 random3;
#X obj 867 421 random3;
#X obj 1078 423 random3;
#X obj 1289 419 random3;
#X obj 763 129 inlet;
#X floatatom 741 588 5 0 0 0 - - - 0;
#X obj 741 686 outlet;
#X obj 646 211 Bass_Chord_Selector, f 31;
#X text 162 434 D minor;
#X text 369 423 E Diminished;
#X text 594 422 F major;
#X text 807 422 G minor;
#X text 1021 424 A minor;
#X text 1227 420 Bb major;
#X connect 0 0 26 0;
#X connect 1 0 26 0;
#X connect 2 0 26 0;
#X connect 3 0 26 0;
#X connect 4 0 26 0;
#X connect 5 0 26 0;
#X connect 6 0 26 0;
#X connect 7 0 26 0;
#X connect 8 0 26 0;
#X connect 9 0 26 0;
#X connect 10 0 26 0;
#X connect 11 0 26 0;
#X connect 12 0 26 0;
#X connect 13 0 26 0;
#X connect 14 0 26 0;
#X connect 15 0 26 0;
#X connect 16 0 26 0;
#X connect 17 0 26 0;
#X connect 19 0 0 0;
#X connect 19 1 1 0;
#X connect 19 2 2 0;
#X connect 20 0 3 0;
#X connect 20 1 4 0;
#X connect 20 2 5 0;
#X connect 21 0 6 0;
#X connect 21 1 7 0;
#X connect 21 2 8 0;
#X connect 22 0 9 0;
#X connect 22 1 10 0;
#X connect 22 2 11 0;
#X connect 23 0 12 0;
#X connect 23 1 13 0;
#X connect 23 2 14 0;
#X connect 24 0 15 0;
#X connect 24 1 16 0;
#X connect 24 2 17 0;
#X connect 25 0 28 0;
#X connect 26 0 27 0;
#X connect 28 0 19 0;
#X connect 28 1 20 0;
#X connect 28 2 21 0;
#X connect 28 3 22 0;
#X connect 28 4 23 0;
#X connect 28 5 24 0;
