#N canvas -1923 -30 1201 534 12;
#X obj 386 131 random3;
#X obj 1018 129 random3;
#X obj 1164 130 random3;
#X text 615 23 KEY OF E MAJOR;
#X obj 547 130 random3;
#X text 482 128 F# minor;
#X msg 490 187 92.5;
#X msg 540 186 110;
#X msg 576 186 138.59;
#X obj 850 129 random3;
#X text 785 127 A major;
#X msg 800 185 110;
#X msg 843 185 138.59;
#X msg 903 186 164.81;
#X text 321 129 E major;
#X msg 328 188 82.41;
#X msg 379 187 103.83;
#X msg 435 187 123.47;
#X obj 687 129 random3;
#X text 622 127 G# minor;
#X msg 630 186 103.83;
#X msg 683 186 123.47;
#X msg 738 186 155.56;
#X text 953 127 B major;
#X msg 961 186 123.47;
#X msg 1015 186 155.56;
#X msg 1072 187 185;
#X text 1099 128 C# minor;
#X msg 1107 187 69.3;
#X msg 1160 187 82.41;
#X msg 1218 187 103.83;
#X floatatom 844 355 5 0 0 0 - - - 0;
#X obj 844 453 outlet;
#X obj 815 -22 inlet;
#X obj 725 24 Bass_Chord_Selector, f 31;
#X connect 0 0 15 0;
#X connect 0 1 16 0;
#X connect 0 2 17 0;
#X connect 1 0 24 0;
#X connect 1 1 25 0;
#X connect 1 2 26 0;
#X connect 2 0 28 0;
#X connect 2 1 29 0;
#X connect 2 2 30 0;
#X connect 4 0 6 0;
#X connect 4 1 7 0;
#X connect 4 2 8 0;
#X connect 6 0 31 0;
#X connect 7 0 31 0;
#X connect 8 0 31 0;
#X connect 9 0 11 0;
#X connect 9 1 12 0;
#X connect 9 2 13 0;
#X connect 11 0 31 0;
#X connect 12 0 31 0;
#X connect 13 0 31 0;
#X connect 15 0 31 0;
#X connect 16 0 31 0;
#X connect 17 0 31 0;
#X connect 18 0 20 0;
#X connect 18 1 21 0;
#X connect 18 2 22 0;
#X connect 20 0 31 0;
#X connect 21 0 31 0;
#X connect 22 0 31 0;
#X connect 24 0 31 0;
#X connect 25 0 31 0;
#X connect 26 0 31 0;
#X connect 28 0 31 0;
#X connect 29 0 31 0;
#X connect 30 0 31 0;
#X connect 31 0 32 0;
#X connect 33 0 34 0;
#X connect 34 0 0 0;
#X connect 34 1 4 0;
#X connect 34 2 18 0;
#X connect 34 3 9 0;
#X connect 34 4 1 0;
#X connect 34 5 2 0;
