#N canvas -2138 -215 1850 849 12;
#X obj 217 423 random4;
#X obj 403 422 random4;
#X obj 626 423 random4;
#X obj 848 420 random4;
#X obj 1053 421 random4;
#X obj 1253 420 random4;
#X text 102 424 E major seventh;
#X text 287 421 F# minor seventh;
#X msg 133 478 329.63;
#X msg 188 478 415.3;
#X msg 235 478 493.88;
#X msg 289 478 622.25;
#X msg 342 478 369.99;
#X msg 396 478 440;
#X msg 429 478 554.37;
#X msg 481 478 659.25;
#X text 510 422 G# minor seventh;
#X msg 545 475 415.3;
#X msg 590 475 493.88;
#X msg 642 474 622.25;
#X msg 696 474 739.99;
#X text 731 418 A major seventh;
#X msg 791 477 440;
#X msg 822 477 554.37;
#X msg 875 477 659.25;
#X msg 927 477 830.61;
#X text 920 421 B dominant seventh;
#X msg 978 479 493.88;
#X msg 1030 479 622.25;
#X msg 1083 479 739.99;
#X msg 1136 479 880;
#X text 1132 420 C# minor seventh;
#X text 576 292 KEY OF E Major;
#X obj 213 549 * 2, f 4;
#X obj 392 574 * 2;
#X obj 640 588 * 2;
#X obj 865 561 * 2;
#X obj 1080 552 * 2;
#X obj 1278 556 * 2;
#X msg 1190 477 277.18;
#X msg 1246 477 329.63;
#X msg 1307 478 415.3;
#X msg 1369 479 493.88;
#X obj 847 189 inlet;
#X floatatom 768 682 5 0 0 0 - - - 0;
#X obj 768 780 outlet;
#X obj 687 291 Upper_Chord_Selector, f 31;
#X text 475 292 Upper MELODY;
#X connect 0 0 8 0;
#X connect 0 1 9 0;
#X connect 0 2 10 0;
#X connect 0 3 11 0;
#X connect 1 0 12 0;
#X connect 1 1 13 0;
#X connect 1 2 14 0;
#X connect 1 3 15 0;
#X connect 2 0 17 0;
#X connect 2 1 18 0;
#X connect 2 2 19 0;
#X connect 2 3 20 0;
#X connect 3 0 22 0;
#X connect 3 1 23 0;
#X connect 3 2 24 0;
#X connect 3 3 25 0;
#X connect 4 0 27 0;
#X connect 4 1 28 0;
#X connect 4 2 29 0;
#X connect 4 3 30 0;
#X connect 5 0 39 0;
#X connect 5 1 40 0;
#X connect 5 2 41 0;
#X connect 5 3 42 0;
#X connect 8 0 33 0;
#X connect 9 0 33 0;
#X connect 10 0 33 0;
#X connect 11 0 33 0;
#X connect 12 0 34 0;
#X connect 13 0 34 0;
#X connect 14 0 34 0;
#X connect 15 0 34 0;
#X connect 17 0 35 0;
#X connect 18 0 35 0;
#X connect 19 0 35 0;
#X connect 20 0 35 0;
#X connect 22 0 36 0;
#X connect 23 0 36 0;
#X connect 24 0 36 0;
#X connect 25 0 36 0;
#X connect 27 0 37 0;
#X connect 28 0 37 0;
#X connect 29 0 37 0;
#X connect 30 0 37 0;
#X connect 33 0 44 0;
#X connect 34 0 44 0;
#X connect 35 0 44 0;
#X connect 36 0 44 0;
#X connect 37 0 44 0;
#X connect 38 0 44 0;
#X connect 39 0 38 0;
#X connect 40 0 38 0;
#X connect 41 0 38 0;
#X connect 42 0 38 0;
#X connect 43 0 46 0;
#X connect 44 0 45 0;
#X connect 46 0 0 0;
#X connect 46 1 1 0;
#X connect 46 2 2 0;
#X connect 46 3 3 0;
#X connect 46 4 4 0;
#X connect 46 5 5 0;
