#N canvas -1901 -265 1440 765 12;
#X obj 219 433 random4;
#X obj 461 423 random4;
#X obj 650 421 random4;
#X obj 867 421 random4;
#X obj 1079 423 random4;
#X obj 1289 419 random4;
#X text 105 434 E minor seventh;
#X msg 162 490 82.41;
#X msg 211 490 98;
#X msg 241 490 123.47;
#X msg 294 491 146.83;
#X text 276 421 F# minor seventh flat five;
#X msg 390 478 92.5;
#X msg 439 478 110;
#X msg 475 478 130.81;
#X msg 530 478 164.81;
#X text 528 421 G major seventh;
#X msg 593 478 98;
#X msg 624 478 123.47;
#X msg 679 478 146.83;
#X msg 735 478 185;
#X text 755 422 A minor seventh;
#X msg 806 476 110;
#X msg 852 477 130.81;
#X msg 906 478 164.81;
#X msg 962 477 196;
#X text 965 423 B minor seventh;
#X msg 1007 480 123.47;
#X msg 1062 480 146.83;
#X msg 1117 480 185;
#X msg 1175 481 220;
#X text 1169 418 C major seventh;
#X msg 1227 476 65.41;
#X msg 1282 475 82.41;
#X msg 1334 476 98;
#X msg 1374 476 123.47;
#X obj 210 544 * 4;
#X obj 465 549 * 4;
#X obj 653 539 * 4;
#X obj 874 544 * 4;
#X obj 1086 542 * 4;
#X obj 1306 551 * 4;
#X obj 744 238 inlet;
#X floatatom 772 655 5 0 0 0 - - - 0;
#X obj 772 753 outlet;
#X text 444 315 Middle Melody KEY OF E Minor;
#X obj 643 316 Middle_Chord_Selector, f 31;
#X connect 0 0 7 0;
#X connect 0 1 8 0;
#X connect 0 2 9 0;
#X connect 0 3 10 0;
#X connect 1 0 12 0;
#X connect 1 1 13 0;
#X connect 1 2 14 0;
#X connect 1 3 15 0;
#X connect 2 0 17 0;
#X connect 2 1 18 0;
#X connect 2 2 19 0;
#X connect 2 3 20 0;
#X connect 3 0 22 0;
#X connect 3 1 23 0;
#X connect 3 2 24 0;
#X connect 3 3 25 0;
#X connect 4 0 27 0;
#X connect 4 1 28 0;
#X connect 4 2 29 0;
#X connect 4 3 30 0;
#X connect 5 0 32 0;
#X connect 5 1 33 0;
#X connect 5 2 34 0;
#X connect 5 3 35 0;
#X connect 7 0 36 0;
#X connect 8 0 36 0;
#X connect 9 0 36 0;
#X connect 10 0 36 0;
#X connect 12 0 37 0;
#X connect 13 0 37 0;
#X connect 14 0 37 0;
#X connect 15 0 37 0;
#X connect 17 0 38 0;
#X connect 18 0 38 0;
#X connect 19 0 38 0;
#X connect 20 0 38 0;
#X connect 22 0 39 0;
#X connect 23 0 39 0;
#X connect 24 0 39 0;
#X connect 25 0 39 0;
#X connect 27 0 40 0;
#X connect 28 0 40 0;
#X connect 29 0 40 0;
#X connect 30 0 40 0;
#X connect 32 0 41 0;
#X connect 33 0 41 0;
#X connect 34 0 41 0;
#X connect 35 0 41 0;
#X connect 36 0 43 0;
#X connect 37 0 43 0;
#X connect 38 0 43 0;
#X connect 39 0 43 0;
#X connect 40 0 43 0;
#X connect 41 0 43 0;
#X connect 42 0 46 0;
#X connect 43 0 44 0;
#X connect 46 0 0 0;
#X connect 46 1 1 0;
#X connect 46 2 2 0;
#X connect 46 3 3 0;
#X connect 46 4 4 0;
#X connect 46 5 5 0;
