#N canvas -1677 -432 1440 765 12;
#X msg 162 490 82.41;
#X msg 211 490 98;
#X msg 241 490 123.47;
#X msg 390 478 92.5;
#X msg 439 478 110;
#X msg 475 478 130.81;
#X msg 593 478 98;
#X msg 624 478 123.47;
#X msg 679 478 146.83;
#X msg 806 476 110;
#X msg 852 477 130.81;
#X msg 906 478 164.81;
#X msg 1007 480 123.47;
#X msg 1062 480 146.83;
#X msg 1117 480 185;
#X msg 1227 476 65.41;
#X msg 1282 475 82.41;
#X msg 1334 476 98;
#X obj 1289 418 random3;
#X obj 1079 423 random3;
#X obj 867 421 random3;
#X obj 650 421 random3;
#X obj 463 422 random3;
#X obj 219 433 random3;
#X obj 763 129 inlet;
#X floatatom 771 598 5 0 0 0 - - - 0;
#X obj 771 696 outlet;
#X text 438 211 Bass Melody KEY OF E Minor;
#X obj 647 211 Bass_Chord_Selector, f 31;
#X text 159 433 E minor;
#X text 366 422 F# Diminished;
#X text 592 421 G major;
#X text 808 420 A minor;
#X text 1020 422 B minor;
#X text 1232 419 C major;
#X connect 0 0 25 0;
#X connect 1 0 25 0;
#X connect 2 0 25 0;
#X connect 3 0 25 0;
#X connect 4 0 25 0;
#X connect 5 0 25 0;
#X connect 6 0 25 0;
#X connect 7 0 25 0;
#X connect 8 0 25 0;
#X connect 9 0 25 0;
#X connect 10 0 25 0;
#X connect 11 0 25 0;
#X connect 12 0 25 0;
#X connect 13 0 25 0;
#X connect 14 0 25 0;
#X connect 15 0 25 0;
#X connect 16 0 25 0;
#X connect 17 0 25 0;
#X connect 18 0 15 0;
#X connect 18 1 16 0;
#X connect 18 2 17 0;
#X connect 19 0 12 0;
#X connect 19 1 13 0;
#X connect 19 2 14 0;
#X connect 20 0 9 0;
#X connect 20 1 10 0;
#X connect 20 2 11 0;
#X connect 21 0 6 0;
#X connect 21 1 7 0;
#X connect 21 2 8 0;
#X connect 22 0 3 0;
#X connect 22 1 4 0;
#X connect 22 2 5 0;
#X connect 23 0 0 0;
#X connect 23 1 1 0;
#X connect 23 2 2 0;
#X connect 24 0 28 0;
#X connect 25 0 26 0;
#X connect 28 0 23 0;
#X connect 28 1 22 0;
#X connect 28 2 21 0;
#X connect 28 3 20 0;
#X connect 28 4 19 0;
#X connect 28 5 18 0;
