#N canvas -1818 27 1440 580 12;
#X obj 219 433 random4;
#X obj 461 423 random4;
#X obj 650 421 random4;
#X obj 867 421 random4;
#X obj 1079 423 random4;
#X obj 1289 419 random4;
#X obj 210 544 * 8;
#X obj 465 549 * 8;
#X obj 653 539 * 8;
#X obj 874 544 * 8;
#X obj 1086 542 * 8;
#X obj 1306 551 * 8;
#X text 434 287 Upper Melody KEY OF E Minor;
#X text 105 434 E minor seventh;
#X msg 162 490 82.41;
#X msg 211 490 98;
#X msg 241 490 123.47;
#X msg 294 491 146.83;
#X text 276 421 F# minor seventh flat five;
#X msg 390 478 92.5;
#X msg 439 478 110;
#X msg 475 478 130.81;
#X msg 530 478 164.81;
#X text 528 421 G major seventh;
#X msg 593 478 98;
#X msg 624 478 123.47;
#X msg 679 478 146.83;
#X msg 735 478 185;
#X text 755 422 A minor seventh;
#X msg 806 476 110;
#X msg 852 477 130.81;
#X msg 906 478 164.81;
#X msg 962 477 196;
#X text 965 423 B minor seventh;
#X msg 1007 480 123.47;
#X msg 1062 480 146.83;
#X msg 1117 480 185;
#X msg 1175 481 220;
#X text 1169 418 C major seventh;
#X msg 1227 476 65.41;
#X msg 1282 475 82.41;
#X msg 1334 476 98;
#X msg 1374 476 123.47;
#X obj 751 205 inlet;
#X floatatom 768 648 5 0 0 0 - - - 0;
#X obj 768 746 outlet;
#X obj 634 287 Upper_Chord_Selector, f 31;
#X connect 0 0 14 0;
#X connect 0 1 15 0;
#X connect 0 2 16 0;
#X connect 0 3 17 0;
#X connect 1 0 19 0;
#X connect 1 1 20 0;
#X connect 1 2 21 0;
#X connect 1 3 22 0;
#X connect 2 0 24 0;
#X connect 2 1 25 0;
#X connect 2 2 26 0;
#X connect 2 3 27 0;
#X connect 3 0 29 0;
#X connect 3 1 30 0;
#X connect 3 2 31 0;
#X connect 3 3 32 0;
#X connect 4 0 34 0;
#X connect 4 1 35 0;
#X connect 4 2 36 0;
#X connect 4 3 37 0;
#X connect 5 0 39 0;
#X connect 5 1 40 0;
#X connect 5 2 41 0;
#X connect 5 3 42 0;
#X connect 6 0 44 0;
#X connect 7 0 44 0;
#X connect 8 0 44 0;
#X connect 9 0 44 0;
#X connect 10 0 44 0;
#X connect 11 0 44 0;
#X connect 14 0 6 0;
#X connect 15 0 6 0;
#X connect 16 0 6 0;
#X connect 17 0 6 0;
#X connect 19 0 7 0;
#X connect 20 0 7 0;
#X connect 21 0 7 0;
#X connect 22 0 7 0;
#X connect 24 0 8 0;
#X connect 25 0 8 0;
#X connect 26 0 8 0;
#X connect 27 0 8 0;
#X connect 29 0 9 0;
#X connect 30 0 9 0;
#X connect 31 0 9 0;
#X connect 32 0 9 0;
#X connect 34 0 10 0;
#X connect 35 0 10 0;
#X connect 36 0 10 0;
#X connect 37 0 10 0;
#X connect 39 0 11 0;
#X connect 40 0 11 0;
#X connect 41 0 11 0;
#X connect 42 0 11 0;
#X connect 43 0 46 0;
#X connect 44 0 45 0;
#X connect 46 0 0 0;
#X connect 46 1 1 0;
#X connect 46 2 2 0;
#X connect 46 3 3 0;
#X connect 46 4 4 0;
#X connect 46 5 5 0;
