#N canvas -1224 -338 812 961 12;
#X obj 154 323 netreceive -u -b;
#X obj 154 366 oscparse;
#X msg 276 285 listen 0;
#X obj 139 428 list trim;
#X msg 155 286 listen 7000;
#X floatatom 206 584 5 0 0 0 - - - 0;
#X floatatom 396 591 5 0 0 0 - - - 0;
#X obj 191 686 send temperatureFeels;
#X obj 391 684 send pressure;
#X floatatom 544 590 5 0 0 0 - - - 0;
#X obj 555 659 send temperatureOffset;
#X obj 151 506 route temperatureFeels pressure temperatureOffset;
#X obj 153 241 inlet;
#X obj 276 241 inlet;
#X connect 0 0 1 0;
#X connect 1 0 3 0;
#X connect 2 0 0 0;
#X connect 3 0 11 0;
#X connect 4 0 0 0;
#X connect 5 0 7 0;
#X connect 6 0 8 0;
#X connect 9 0 10 0;
#X connect 11 0 5 0;
#X connect 11 1 6 0;
#X connect 11 2 9 0;
#X connect 12 0 4 0;
#X connect 13 0 2 0;
