#N canvas -2048 258 1768 300 12;
#X obj 967 218 random4;
#X msg 899 274 261.63;
#X msg 953 274 329.63;
#X msg 1007 273 392;
#X text 831 218 C dominant seventh;
#X msg 1038 273 466.16;
#X text 1046 217 D minor seventh;
#X obj 1162 218 random4;
#X msg 1101 274 293.66;
#X msg 1155 274 349.23;
#X msg 1208 273 440;
#X msg 1241 273 523.25;
#X text 440 216 A minor seventh;
#X obj 554 214 random4;
#X msg 495 273 440;
#X msg 531 274 523.25;
#X msg 584 274 629.25;
#X msg 641 274 783.99;
#X obj 131 215 random4;
#X text 17 217 F Major seventh;
#X obj 331 215 random4;
#X text 217 217 G minor seventh;
#X msg 69 272 349.23;
#X msg 124 272 440;
#X msg 163 273 523.25;
#X msg 217 273 659.25;
#X msg 274 273 392;
#X msg 324 272 466.16;
#X msg 385 273 587.33;
#X msg 441 273 698.46;
#X obj 762 214 random4;
#X text 643 215 Bb major seventh;
#X msg 692 274 466.16;
#X msg 744 274 587.33;
#X msg 798 274 698.46;
#X msg 855 274 880;
#X text 422 107 MIDDLE MELODY;
#X text 523 107 KEY OF F Major;
#X obj 747 26 inlet;
#X floatatom 698 415 5 0 0 0 - - - 0;
#X obj 698 513 outlet;
#X obj 630 108 Middle_Chord_Selector, f 31;
#X connect 0 0 1 0;
#X connect 0 1 2 0;
#X connect 0 2 3 0;
#X connect 0 3 5 0;
#X connect 1 0 39 0;
#X connect 2 0 39 0;
#X connect 3 0 39 0;
#X connect 5 0 39 0;
#X connect 7 0 8 0;
#X connect 7 1 9 0;
#X connect 7 2 10 0;
#X connect 7 3 11 0;
#X connect 8 0 39 0;
#X connect 9 0 39 0;
#X connect 10 0 39 0;
#X connect 11 0 39 0;
#X connect 13 0 14 0;
#X connect 13 1 15 0;
#X connect 13 2 16 0;
#X connect 13 3 17 0;
#X connect 14 0 39 0;
#X connect 15 0 39 0;
#X connect 16 0 39 0;
#X connect 17 0 39 0;
#X connect 18 0 22 0;
#X connect 18 1 23 0;
#X connect 18 2 24 0;
#X connect 18 3 25 0;
#X connect 20 0 26 0;
#X connect 20 1 27 0;
#X connect 20 2 28 0;
#X connect 20 3 29 0;
#X connect 22 0 39 0;
#X connect 23 0 39 0;
#X connect 24 0 39 0;
#X connect 25 0 39 0;
#X connect 26 0 39 0;
#X connect 27 0 39 0;
#X connect 28 0 39 0;
#X connect 29 0 39 0;
#X connect 30 0 32 0;
#X connect 30 1 33 0;
#X connect 30 2 34 0;
#X connect 30 3 35 0;
#X connect 32 0 39 0;
#X connect 33 0 39 0;
#X connect 34 0 39 0;
#X connect 35 0 39 0;
#X connect 38 0 41 0;
#X connect 39 0 40 0;
#X connect 41 0 18 0;
#X connect 41 1 20 0;
#X connect 41 2 13 0;
#X connect 41 3 30 0;
#X connect 41 4 0 0;
#X connect 41 5 7 0;
