#N canvas -1687 287 1008 415 12;
#X obj 476 238 random3;
#X text 411 236 A minor;
#X msg 419 295 110;
#X msg 469 294 130.81;
#X msg 530 295 164.81;
#X obj 811 239 random3;
#X text 746 237 C major;
#X msg 754 296 65.41;
#X msg 804 295 82.41;
#X msg 851 294 98;
#X obj 180 238 random3;
#X text 115 236 F major;
#X msg 123 293 87.31;
#X msg 173 294 110;
#X msg 217 294 130.81;
#X obj 328 237 random3;
#X text 263 235 G minor;
#X msg 271 294 98;
#X msg 309 295 116.54;
#X msg 365 295 146.83;
#X obj 644 238 random3;
#X text 579 236 Bb major;
#X msg 587 295 116.54;
#X msg 640 295 146.83;
#X msg 698 295 174.61;
#X obj 952 237 random3;
#X text 887 235 D minor;
#X msg 895 294 73.42;
#X msg 945 293 87.31;
#X msg 992 292 110;
#X text 438 129 KEY OF F Major;
#X obj 629 67 inlet;
#X floatatom 576 401 5 0 0 0 - - - 0;
#X obj 576 499 outlet;
#X obj 549 130 Bass_Chord_Selector;
#X connect 0 0 2 0;
#X connect 0 1 3 0;
#X connect 0 2 4 0;
#X connect 2 0 32 0;
#X connect 3 0 32 0;
#X connect 4 0 32 0;
#X connect 5 0 7 0;
#X connect 5 1 8 0;
#X connect 5 2 9 0;
#X connect 7 0 32 0;
#X connect 8 0 32 0;
#X connect 9 0 32 0;
#X connect 10 0 12 0;
#X connect 10 1 13 0;
#X connect 10 2 14 0;
#X connect 12 0 32 0;
#X connect 13 0 32 0;
#X connect 14 0 32 0;
#X connect 15 0 17 0;
#X connect 15 1 18 0;
#X connect 15 2 19 0;
#X connect 17 0 32 0;
#X connect 18 0 32 0;
#X connect 19 0 32 0;
#X connect 20 0 22 0;
#X connect 20 1 23 0;
#X connect 20 2 24 0;
#X connect 22 0 32 0;
#X connect 23 0 32 0;
#X connect 24 0 32 0;
#X connect 25 0 27 0;
#X connect 25 1 28 0;
#X connect 25 2 29 0;
#X connect 27 0 32 0;
#X connect 28 0 32 0;
#X connect 29 0 32 0;
#X connect 31 0 34 0;
#X connect 32 0 33 0;
#X connect 34 0 10 0;
#X connect 34 1 15 0;
#X connect 34 2 0 0;
#X connect 34 3 20 0;
#X connect 34 4 5 0;
#X connect 34 5 25 0;
