#N canvas -2097 -166 1440 580 12;
#X obj 219 433 random4;
#X obj 461 423 random4;
#X obj 650 421 random4;
#X obj 867 421 random4;
#X obj 1079 423 random4;
#X obj 1289 419 random4;
#X text 105 433 F minor seventh;
#X msg 162 490 87.31;
#X msg 207 490 103.83;
#X msg 260 490 130.81;
#X msg 314 490 155.56;
#X text 275 421 G minor seventh flat five;
#X msg 390 478 98;
#X msg 422 478 116.54;
#X msg 475 478 138.59;
#X msg 530 478 174.61;
#X text 529 421 Ab major seventh;
#X msg 584 478 103.83;
#X msg 635 479 130.81;
#X msg 688 480 155.56;
#X msg 743 480 174.61;
#X text 746 421 Bb minor seventh;
#X msg 799 477 116.54;
#X msg 852 477 138.59;
#X msg 906 478 174.61;
#X msg 962 477 207.65;
#X text 965 423 C minor seventh;
#X msg 1017 479 65.41;
#X msg 1062 480 77.78;
#X msg 1117 480 98;
#X msg 1174 481 116.54;
#X text 1169 418 Db major seventh;
#X msg 1227 476 69.3;
#X msg 1282 475 87.31;
#X msg 1343 476 103.83;
#X msg 1398 476 130.81;
#X obj 210 545 * 4;
#X obj 465 549 * 4;
#X obj 653 539 * 4;
#X obj 875 544 * 4;
#X obj 1086 542 * 4;
#X obj 1306 551 * 4;
#X obj 789 221 inlet;
#X floatatom 763 678 5 0 0 0 - - - 0;
#X obj 763 776 outlet;
#X obj 672 303 Middle_Chord_Selector, f 31;
#X text 467 303 Middle Melody KEY OF F Minor;
#X connect 0 0 7 0;
#X connect 0 1 8 0;
#X connect 0 2 9 0;
#X connect 0 3 10 0;
#X connect 1 0 12 0;
#X connect 1 1 13 0;
#X connect 1 2 14 0;
#X connect 1 3 15 0;
#X connect 2 0 17 0;
#X connect 2 1 18 0;
#X connect 2 2 19 0;
#X connect 2 3 20 0;
#X connect 3 0 22 0;
#X connect 3 1 23 0;
#X connect 3 2 24 0;
#X connect 3 3 25 0;
#X connect 4 0 27 0;
#X connect 4 1 28 0;
#X connect 4 2 29 0;
#X connect 4 3 30 0;
#X connect 5 0 32 0;
#X connect 5 1 33 0;
#X connect 5 2 34 0;
#X connect 5 3 35 0;
#X connect 7 0 36 0;
#X connect 8 0 36 0;
#X connect 9 0 36 0;
#X connect 10 0 36 0;
#X connect 12 0 37 0;
#X connect 13 0 37 0;
#X connect 14 0 37 0;
#X connect 15 0 37 0;
#X connect 17 0 38 0;
#X connect 18 0 38 0;
#X connect 19 0 38 0;
#X connect 20 0 38 0;
#X connect 22 0 39 0;
#X connect 23 0 39 0;
#X connect 24 0 39 0;
#X connect 25 0 39 0;
#X connect 27 0 40 0;
#X connect 28 0 40 0;
#X connect 29 0 40 0;
#X connect 30 0 40 0;
#X connect 32 0 41 0;
#X connect 33 0 41 0;
#X connect 34 0 41 0;
#X connect 35 0 41 0;
#X connect 36 0 43 0;
#X connect 37 0 43 0;
#X connect 38 0 43 0;
#X connect 39 0 43 0;
#X connect 40 0 43 0;
#X connect 41 0 43 0;
#X connect 42 0 45 0;
#X connect 43 0 44 0;
#X connect 45 0 0 0;
#X connect 45 1 1 0;
#X connect 45 2 2 0;
#X connect 45 3 3 0;
#X connect 45 4 4 0;
#X connect 45 5 5 0;
