#N canvas -2261 -178 1440 580 12;
#X msg 162 490 87.31;
#X msg 207 490 103.83;
#X msg 260 490 130.81;
#X msg 390 478 98;
#X msg 422 478 116.54;
#X msg 475 478 138.59;
#X msg 584 478 103.83;
#X msg 635 479 130.81;
#X msg 688 480 155.56;
#X msg 799 477 116.54;
#X msg 852 477 138.59;
#X msg 906 478 174.61;
#X msg 1017 479 65.41;
#X msg 1062 480 77.78;
#X msg 1117 480 98;
#X msg 1227 476 69.3;
#X msg 1282 475 87.31;
#X msg 1343 476 103.83;
#X obj 219 433 random3;
#X obj 461 423 random3;
#X obj 650 421 random3;
#X obj 867 421 random3;
#X obj 1079 423 random3;
#X obj 1289 419 random3;
#X obj 710 145 inlet;
#X floatatom 717 603 5 0 0 0 - - - 0;
#X obj 717 701 outlet;
#X obj 594 227 Bass_Chord_Selector, f 31;
#X text 379 226 Bass Melody KEY OF F Minor;
#X text 161 432 F minor;
#X text 367 423 G Diminished;
#X text 586 422 Ab major;
#X text 800 421 Bb minor;
#X text 1012 419 C minor;
#X text 1223 419 Db major;
#X connect 0 0 25 0;
#X connect 1 0 25 0;
#X connect 2 0 25 0;
#X connect 3 0 25 0;
#X connect 4 0 25 0;
#X connect 5 0 25 0;
#X connect 6 0 25 0;
#X connect 7 0 25 0;
#X connect 8 0 25 0;
#X connect 9 0 25 0;
#X connect 10 0 25 0;
#X connect 11 0 25 0;
#X connect 12 0 25 0;
#X connect 13 0 25 0;
#X connect 14 0 25 0;
#X connect 15 0 25 0;
#X connect 16 0 25 0;
#X connect 17 0 25 0;
#X connect 18 0 0 0;
#X connect 18 1 1 0;
#X connect 18 2 2 0;
#X connect 19 0 3 0;
#X connect 19 1 4 0;
#X connect 19 2 5 0;
#X connect 20 0 6 0;
#X connect 20 1 7 0;
#X connect 20 2 8 0;
#X connect 21 0 9 0;
#X connect 21 1 10 0;
#X connect 21 2 11 0;
#X connect 22 0 12 0;
#X connect 22 1 13 0;
#X connect 22 2 14 0;
#X connect 23 0 15 0;
#X connect 23 1 16 0;
#X connect 23 2 17 0;
#X connect 24 0 27 0;
#X connect 25 0 26 0;
#X connect 27 0 18 0;
#X connect 27 1 19 0;
#X connect 27 2 20 0;
#X connect 27 3 21 0;
#X connect 27 4 22 0;
#X connect 27 5 23 0;
