#N canvas -2134 -258 1647 452 12;
#X text 570 95 KEY OF G Major;
#X text 241 221 A minor seventh;
#X obj 355 219 random4;
#X msg 298 277 440;
#X msg 348 276 523.25;
#X msg 409 277 629.25;
#X msg 465 277 783.99;
#X text 1086 220 E minor seventh;
#X obj 1202 221 random4;
#X msg 1126 274 329.63;
#X msg 1181 274 392;
#X msg 1217 275 493.88;
#X msg 1274 275 587.33;
#X obj 577 219 random4;
#X text 463 221 B minor seventh;
#X msg 520 277 493.88;
#X msg 574 277 587.33;
#X msg 631 277 739.99;
#X msg 687 277 880;
#X obj 150 222 random4;
#X text 34 221 G major seventh;
#X msg 89 278 392;
#X msg 122 278 493.88;
#X msg 175 278 587.33;
#X msg 228 278 739.99;
#X obj 795 221 random4;
#X text 680 222 C major seventh;
#X msg 727 277 261.63;
#X msg 781 277 329.63;
#X msg 835 276 392;
#X msg 866 276 493.88;
#X obj 1006 220 random4;
#X msg 929 275 293.66;
#X msg 983 273 369.99;
#X msg 1035 273 440;
#X text 873 219 D dominant seventh;
#X msg 1070 274 523.25;
#X obj 144 390 * 2, f 4;
#X obj 323 415 * 2;
#X obj 558 416 * 2;
#X obj 796 402 * 2;
#X obj 1011 393 * 2;
#X obj 1209 397 * 2;
#X text 470 95 UPPER MELODY;
#X obj 794 13 inlet;
#X floatatom 700 481 5 0 0 0 - - - 0;
#X obj 700 579 outlet;
#X obj 677 95 Upper_Chord_Selector, f 31;
#X connect 2 0 3 0;
#X connect 2 1 4 0;
#X connect 2 2 5 0;
#X connect 2 3 6 0;
#X connect 3 0 38 0;
#X connect 4 0 38 0;
#X connect 5 0 38 0;
#X connect 6 0 38 0;
#X connect 8 0 9 0;
#X connect 8 1 10 0;
#X connect 8 2 11 0;
#X connect 8 3 12 0;
#X connect 9 0 42 0;
#X connect 10 0 42 0;
#X connect 11 0 42 0;
#X connect 12 0 42 0;
#X connect 13 0 15 0;
#X connect 13 1 16 0;
#X connect 13 2 17 0;
#X connect 13 3 18 0;
#X connect 15 0 39 0;
#X connect 16 0 39 0;
#X connect 17 0 39 0;
#X connect 18 0 39 0;
#X connect 19 0 21 0;
#X connect 19 1 22 0;
#X connect 19 2 23 0;
#X connect 19 3 24 0;
#X connect 21 0 37 0;
#X connect 22 0 37 0;
#X connect 23 0 37 0;
#X connect 24 0 37 0;
#X connect 25 0 27 0;
#X connect 25 1 28 0;
#X connect 25 2 29 0;
#X connect 25 3 30 0;
#X connect 27 0 40 0;
#X connect 28 0 40 0;
#X connect 29 0 40 0;
#X connect 30 0 40 0;
#X connect 31 0 32 0;
#X connect 31 1 33 0;
#X connect 31 2 34 0;
#X connect 31 3 36 0;
#X connect 32 0 41 0;
#X connect 33 0 41 0;
#X connect 34 0 41 0;
#X connect 36 0 41 0;
#X connect 37 0 45 0;
#X connect 38 0 45 0;
#X connect 39 0 45 0;
#X connect 40 0 45 0;
#X connect 41 0 45 0;
#X connect 42 0 45 0;
#X connect 44 0 47 0;
#X connect 45 0 46 0;
#X connect 47 0 19 0;
#X connect 47 1 2 0;
#X connect 47 2 13 0;
#X connect 47 3 25 0;
#X connect 47 4 31 0;
#X connect 47 5 8 0;
