#N canvas -2118 305 1549 364 12;
#X obj 756 206 random3;
#X text 691 204 C major;
#X msg 699 263 65.41;
#X msg 749 262 82.41;
#X msg 796 261 98;
#X obj 1076 204 random3;
#X text 1011 202 E minor;
#X obj 287 204 random3;
#X obj 448 205 random3;
#X text 222 202 G major;
#X text 383 203 A minor;
#X msg 230 261 98;
#X msg 270 261 123.47;
#X msg 325 261 146.83;
#X msg 391 262 110;
#X msg 441 261 130.81;
#X msg 502 262 164.81;
#X msg 1019 261 82.41;
#X msg 1069 260 98;
#X msg 1116 259 123.47;
#X text 501 81 KEY OF G Major;
#X obj 893 205 random3;
#X text 828 203 D major;
#X msg 836 262 73.42;
#X msg 886 261 92.5;
#X msg 933 260 110;
#X obj 612 204 random3;
#X text 547 202 B minor;
#X msg 555 262 123.47;
#X msg 609 262 146.83;
#X msg 665 261 185;
#X obj 724 0 inlet;
#X floatatom 710 367 5 0 0 0 - - - 0;
#X obj 710 465 outlet;
#X obj 608 82 Bass_Chord_Selector, f 31;
#X connect 0 0 2 0;
#X connect 0 1 3 0;
#X connect 0 2 4 0;
#X connect 2 0 32 0;
#X connect 3 0 32 0;
#X connect 4 0 32 0;
#X connect 5 0 17 0;
#X connect 5 1 18 0;
#X connect 5 2 19 0;
#X connect 7 0 11 0;
#X connect 7 1 12 0;
#X connect 7 2 13 0;
#X connect 8 0 14 0;
#X connect 8 1 15 0;
#X connect 8 2 16 0;
#X connect 11 0 32 0;
#X connect 12 0 32 0;
#X connect 13 0 32 0;
#X connect 14 0 32 0;
#X connect 15 0 32 0;
#X connect 16 0 32 0;
#X connect 17 0 32 0;
#X connect 18 0 32 0;
#X connect 19 0 32 0;
#X connect 21 0 23 0;
#X connect 21 1 24 0;
#X connect 21 2 25 0;
#X connect 23 0 32 0;
#X connect 24 0 32 0;
#X connect 25 0 32 0;
#X connect 26 0 28 0;
#X connect 26 1 29 0;
#X connect 26 2 30 0;
#X connect 28 0 32 0;
#X connect 29 0 32 0;
#X connect 30 0 32 0;
#X connect 31 0 34 0;
#X connect 32 0 33 0;
#X connect 34 0 7 0;
#X connect 34 1 8 0;
#X connect 34 2 26 0;
#X connect 34 3 0 0;
#X connect 34 4 21 0;
#X connect 34 5 5 0;
