#N canvas -1792 -192 1109 516 12;
#X obj 172 139 select 5;
#X obj 1539 -77 netreceive -u -b;
#X obj 1539 -34 oscparse;
#X msg 1661 -115 listen 0;
#X obj 1524 28 list trim;
#X msg 1540 -114 listen 7000;
#X floatatom 1539 183 5 0 0 0 - - - 0;
#X floatatom 1591 184 5 0 0 0 - - - 0;
#X floatatom 1639 185 5 0 0 0 - - - 0;
#X floatatom 1691 186 5 0 0 0 - - - 0;
#X floatatom 1736 186 5 0 0 0 - - - 0;
#X floatatom 1805 187 5 0 0 0 - - - 0;
#X obj 1536 106 route temperatureAcc temperatureFeels temperatureMin
temperatureMax pressure humidity;
#X text 1670 -29 OSC data capture for weather API;
#X obj 237 140 select 6;
#X obj 303 140 select 7;
#X obj 366 140 select 8;
#X obj 430 140 select 9;
#X obj 560 140 select 1;
#X obj 626 140 select 2;
#X obj 689 140 select 3;
#X obj 754 140 select 4;
#X obj 183 206 1;
#X obj 242 210 0.999;
#X obj 299 210 0.998;
#X obj 371 210 0.997;
#X obj 426 211 0.996;
#X obj 494 211 0.995;
#X obj 564 210 0.994;
#X obj 637 208 0.993;
#X obj 494 140 select 0;
#X obj 689 206 0.992;
#X obj 743 206 0.991, f 6;
#X floatatom 506 315 5 0 0 0 - - - 0;
#X obj 506 372 outlet;
#X obj 524 40 \$1;
#X floatatom 617 24 5 0 0 0 - - - 0;
#X obj 617 0 receive pressure;
#X connect 0 0 22 0;
#X connect 1 0 2 0;
#X connect 2 0 4 0;
#X connect 3 0 1 0;
#X connect 4 0 12 0;
#X connect 5 0 1 0;
#X connect 12 0 6 0;
#X connect 12 1 7 0;
#X connect 12 2 8 0;
#X connect 12 3 9 0;
#X connect 12 4 10 0;
#X connect 12 5 11 0;
#X connect 14 0 23 0;
#X connect 15 0 24 0;
#X connect 16 0 25 0;
#X connect 17 0 26 0;
#X connect 18 0 28 0;
#X connect 19 0 29 0;
#X connect 20 0 31 0;
#X connect 21 0 32 0;
#X connect 22 0 33 0;
#X connect 23 0 33 0;
#X connect 24 0 33 0;
#X connect 25 0 33 0;
#X connect 26 0 33 0;
#X connect 27 0 33 0;
#X connect 28 0 33 0;
#X connect 29 0 33 0;
#X connect 30 0 27 0;
#X connect 31 0 33 0;
#X connect 32 0 33 0;
#X connect 33 0 34 0;
#X connect 35 0 0 0;
#X connect 35 0 14 0;
#X connect 35 0 15 0;
#X connect 35 0 16 0;
#X connect 35 0 17 0;
#X connect 35 0 30 0;
#X connect 35 0 18 0;
#X connect 35 0 19 0;
#X connect 35 0 20 0;
#X connect 35 0 21 0;
#X connect 36 0 35 0;
#X connect 37 0 36 0;
