#N canvas -1338 59 970 691 12;
#X floatatom 2868 624 5 0 0 0 - - - 0;
#X obj 2867 678 phasor~;
#X obj 3048 579 receive ON;
#X obj 3048 614 sel 1;
#X obj 3048 648 bng 15 250 50 0 empty empty empty 17 7 0 10 #fcfcfc
#000000 #000000;
#X msg 3048 696 1 500;
#X obj 3048 739 line;
#X obj 3132 580 receive whole_time;
#X floatatom 3132 628 5 0 0 0 - - - 0;
#X obj 3132 651 - 100;
#X obj 3100 680 delay;
#X msg 3100 720 0 100;
#X obj 3183 644 receive ON;
#X obj 3183 668 sel 0;
#X obj 3183 701 delay 5;
#X text 3159 551 Envelope;
#X obj 2879 550 bng 15 250 50 0 empty empty empty 17 7 0 10 #fcfcfc
#000000 #000000;
#X obj 2879 501 r whole_note;
#X obj 2879 575 Bass_Melody_Selector;
#X obj 2865 804 send~ Bass;
#X floatatom 2656 672 5 0 0 0 - - - 0;
#X obj 2656 698 phasor~;
#X floatatom 2987 664 5 0 0 0 - - - 0;
#X obj 2987 687 phasor~;
#X obj 2656 642 * \$1;
#X obj 2987 632 * \$1;
#X obj 2867 717 lop~ 200;
#X obj 2681 595 Bass_Lower_Detune_Selector;
#X obj 3012 502 Bass_Upper_Detune_Selector;
#X obj 2867 758 *~ 0.3;
#X connect 0 0 1 0;
#X connect 0 0 24 0;
#X connect 1 0 26 0;
#X connect 2 0 3 0;
#X connect 3 0 4 0;
#X connect 4 0 5 0;
#X connect 5 0 6 0;
#X connect 6 0 29 1;
#X connect 7 0 8 0;
#X connect 8 0 9 0;
#X connect 9 0 10 1;
#X connect 10 0 11 0;
#X connect 11 0 6 0;
#X connect 12 0 13 0;
#X connect 13 0 14 0;
#X connect 14 0 11 0;
#X connect 16 0 18 0;
#X connect 17 0 16 0;
#X connect 18 0 0 0;
#X connect 18 0 25 0;
#X connect 20 0 21 0;
#X connect 21 0 26 0;
#X connect 22 0 23 0;
#X connect 23 0 26 0;
#X connect 24 0 20 0;
#X connect 25 0 22 0;
#X connect 26 0 29 0;
#X connect 27 0 24 1;
#X connect 28 0 25 1;
#X connect 29 0 19 0;
