#N canvas -2260 -37 505 531 12;
#X obj 1980 -111 bng 15 250 50 0 empty empty empty 17 7 0 10 #fcfcfc
#000000 #000000;
#X floatatom 2045 69 5 0 0 0 - - - 0;
#X obj 2045 264 *~;
#X obj 2185 36 bng 15 250 50 0 empty empty empty 17 7 0 10 #fcfcfc
#000000 #000000;
#X floatatom 2302 56 5 0 0 0 - - - 0;
#X obj 2302 94 - 500;
#X text 2339 -18 Envelope;
#X obj 2270 138 delay;
#X msg 2185 176 1 500;
#X msg 2270 190 0 500;
#X obj 2383 79 receive ON;
#X obj 2383 115 sel 0;
#X obj 2384 171 delay 5;
#X obj 2211 238 line;
#X floatatom 2123 126 5 0 0 0 - - - 0;
#X obj 2123 149 phasor~;
#X obj 1981 -140 r half_note;
#X obj 2302 17 r half_time;
#X obj 2045 227 lop~ \$1;
#X obj 2045 115 phasor~;
#X obj 2000 42 Middle_Melody_Selector;
#X text 2275 -154 Middle MELODY;
#X obj 2045 328 send~ Ambient_Pad_Middle1;
#X floatatom 1984 124 5 0 0 0 - - - 0;
#X obj 1984 147 phasor~;
#X obj 1984 92 * \$1;
#X obj 2123 94 * \$1;
#X floatatom 1821 79 5 0 0 0 - - - 0;
#X obj 2120 -96 Upper_Detune_Selector;
#X floatatom 2146 -53 5 0 0 0 - - - 0;
#X obj 1821 43 Lower_Detune_Selector;
#X obj 2095 200 r midfilter;
#X obj 2044 288 *~ 0.1;
#X connect 0 0 20 0;
#X connect 1 0 19 0;
#X connect 1 0 26 0;
#X connect 2 0 32 0;
#X connect 3 0 7 0;
#X connect 3 0 8 0;
#X connect 4 0 5 0;
#X connect 5 0 7 1;
#X connect 7 0 9 0;
#X connect 8 0 13 0;
#X connect 9 0 13 0;
#X connect 10 0 11 0;
#X connect 11 0 12 0;
#X connect 12 0 9 0;
#X connect 13 0 2 1;
#X connect 14 0 15 0;
#X connect 15 0 18 0;
#X connect 16 0 0 0;
#X connect 16 0 3 0;
#X connect 17 0 4 0;
#X connect 18 0 2 0;
#X connect 19 0 18 0;
#X connect 20 0 1 0;
#X connect 20 0 25 0;
#X connect 23 0 24 0;
#X connect 24 0 18 0;
#X connect 25 0 23 0;
#X connect 26 0 14 0;
#X connect 28 0 29 0;
#X connect 29 0 26 1;
#X connect 30 0 25 1;
#X connect 30 0 27 0;
#X connect 31 0 18 1;
#X connect 32 0 22 0;
