#N canvas -1054 -19 657 503 12;
#X obj 2922 -27 bng 15 250 50 0 empty empty empty 17 7 0 10 #fcfcfc
#000000 #000000;
#X floatatom 2968 27 5 0 0 0 - - - 0;
#X obj 2968 222 *~;
#X obj 3127 -40 bng 15 250 50 0 empty empty empty 17 7 0 10 #fcfcfc
#000000 #000000;
#X floatatom 3207 23 5 0 0 0 - - - 0;
#X obj 3207 61 - 500;
#X text 3228 -38 Envelope;
#X obj 3175 109 delay;
#X msg 3127 137 1 500;
#X msg 3175 161 0 500;
#X obj 3252 50 receive ON;
#X obj 3252 86 sel 0;
#X obj 3253 142 delay 5;
#X obj 3127 203 line;
#X floatatom 3059 85 5 0 0 0 - - - 0;
#X obj 3059 108 phasor~;
#X obj 2922 -94 r half_note;
#X obj 3207 -16 r half_time;
#X obj 2968 185 lop~ \$1;
#X obj 2968 73 phasor~;
#X obj 2923 0 Middle_Melody_Selector;
#X obj 2968 286 send~ Ambient_Pad_Middle2;
#X floatatom 2820 51 5 0 0 0 - - - 0;
#X obj 2820 74 phasor~;
#X obj 2820 19 * \$1;
#X obj 3059 54 * \$1;
#X obj 3084 -69 Upper_Detune_Selector;
#X floatatom 3084 -30 5 0 0 0 - - - 0;
#X floatatom 2767 1 5 0 0 0 - - - 0;
#X obj 2767 -36 Lower_Detune_Selector;
#X obj 2968 246 *~ 0.08;
#X floatatom 3021 -77 5 0 0 0 - - - 0;
#X obj 3021 -139 r 4th_time;
#X obj 2922 -59 delay \$1;
#X obj 3021 -105 / 2;
#X obj 3022 162 r midfilter;
#X floatatom 3050 197 5 0 0 0 - - - 0;
#X connect 0 0 20 0;
#X connect 1 0 19 0;
#X connect 1 0 25 0;
#X connect 2 0 30 0;
#X connect 3 0 7 0;
#X connect 3 0 8 0;
#X connect 4 0 5 0;
#X connect 5 0 7 1;
#X connect 7 0 9 0;
#X connect 8 0 13 0;
#X connect 9 0 13 0;
#X connect 10 0 11 0;
#X connect 11 0 12 0;
#X connect 12 0 9 0;
#X connect 13 0 2 1;
#X connect 14 0 15 0;
#X connect 15 0 18 0;
#X connect 16 0 33 0;
#X connect 17 0 4 0;
#X connect 18 0 2 0;
#X connect 19 0 18 0;
#X connect 20 0 1 0;
#X connect 20 0 24 0;
#X connect 22 0 23 0;
#X connect 23 0 18 0;
#X connect 24 0 22 0;
#X connect 25 0 14 0;
#X connect 26 0 27 0;
#X connect 27 0 25 1;
#X connect 28 0 24 1;
#X connect 29 0 28 0;
#X connect 30 0 21 0;
#X connect 31 0 33 1;
#X connect 32 0 34 0;
#X connect 33 0 0 0;
#X connect 33 0 3 0;
#X connect 34 0 31 0;
#X connect 35 0 18 1;
#X connect 35 0 36 0;
