#N canvas -1728 -435 875 565 12;
#X obj 1982 2285 *~ 0.5;
#X obj 2042 2287 *~ 0.5;
#X obj 2000 2320 dac~;
#X obj 2055 2218 freeverb~;
#X obj 2135 2219 freeverb~;
#X obj 2212 2220 freeverb~;
#X obj 2215 2150 receive~ Ambient_Pad_Upper2;
#X obj 2272 2184 receive~ Ambient_Pad_Upper3;
#X obj 1901 2215 freeverb~;
#X obj 2187 2122 receive~ Ambient_Pad_Upper1;
#X obj 1777 2214 receive~ Bass;
#X obj 1978 2216 freeverb~;
#X obj 1751 2131 receive~ Ambient_Pad_Middle1;
#X obj 1660 2109 receive~ Ambient_Pad_Middle2;
#X obj 2010 1933 loadbang;
#X obj 2092 1933 loadbang;
#X obj 1921 1933 loadbang;
#X msg 1922 1975 1;
#X msg 2010 1973 0.5;
#X msg 1921 2014 wet \$1;
#X msg 2010 2014 dry \$1;
#X msg 2092 2017 roomsize \$1;
#X msg 2092 1974 0.65;
#X obj 2187 1933 loadbang;
#X msg 2187 2017 damping \$1;
#X msg 2187 1973 0.95;
#X connect 0 0 2 0;
#X connect 1 0 2 1;
#X connect 3 0 0 0;
#X connect 3 1 1 0;
#X connect 4 0 0 0;
#X connect 4 1 1 0;
#X connect 5 0 0 0;
#X connect 5 1 1 0;
#X connect 6 0 4 1;
#X connect 6 0 4 0;
#X connect 7 0 5 1;
#X connect 7 0 5 0;
#X connect 8 0 0 0;
#X connect 8 1 1 0;
#X connect 9 0 3 0;
#X connect 9 0 3 1;
#X connect 10 0 0 0;
#X connect 10 0 1 0;
#X connect 11 0 0 0;
#X connect 11 1 1 0;
#X connect 12 0 11 0;
#X connect 12 0 11 1;
#X connect 13 0 8 0;
#X connect 13 0 8 1;
#X connect 14 0 18 0;
#X connect 15 0 22 0;
#X connect 16 0 17 0;
#X connect 17 0 19 0;
#X connect 18 0 20 0;
#X connect 19 0 5 0;
#X connect 19 0 4 0;
#X connect 19 0 3 0;
#X connect 19 0 11 0;
#X connect 19 0 8 0;
#X connect 20 0 5 0;
#X connect 20 0 4 0;
#X connect 20 0 3 0;
#X connect 20 0 11 0;
#X connect 20 0 8 0;
#X connect 21 0 5 0;
#X connect 21 0 4 0;
#X connect 21 0 3 0;
#X connect 21 0 11 0;
#X connect 21 0 8 0;
#X connect 22 0 21 0;
#X connect 23 0 25 0;
#X connect 24 0 5 0;
#X connect 24 0 4 0;
#X connect 24 0 3 0;
#X connect 24 0 11 0;
#X connect 24 0 8 0;
#X connect 25 0 24 0;
