#N canvas -1551 -146 1061 963 12;
#X obj 444 334 netreceive -u -b;
#X obj 444 377 oscparse;
#X obj 444 416 list trim;
#X msg 566 296 listen 0;
#X msg 445 296 listen 6000;
#X obj 443 459 route gyrosc;
#X obj 479 575 unpack f f f;
#X floatatom 452 664 5 0 0 0 - - - 0;
#X floatatom 495 665 5 0 0 0 - - - 0;
#X floatatom 540 663 5 0 0 0 - - - 0;
#X floatatom 330 837 5 0 0 0 - - - 0;
#X obj 330 872 send bpm;
#X floatatom 449 845 5 0 0 0 - - - 0;
#X obj 450 882 send upfilter;
#X floatatom 546 830 5 0 0 0 - - - 0;
#X obj 547 867 send midfilter;
#X obj 444 533 route gyro;
#X obj 521 694 + 3.14;
#X obj 524 735 * 750;
#X obj 524 801 + 250;
#X obj 524 777 / 6.28;
#X obj 452 710 + 3.14;
#X obj 455 793 / 6.28;
#X obj 330 782 / 3.14;
#X obj 327 699 + 1.57;
#X obj 330 740 * 50;
#X obj 330 806 + 20;
#X obj 463 222 inlet;
#X obj 566 237 inlet;
#X obj 455 751 * 1250;
#X obj 455 817 + 750;
#X connect 0 0 1 0;
#X connect 1 0 2 0;
#X connect 2 0 5 0;
#X connect 3 0 0 0;
#X connect 4 0 0 0;
#X connect 5 0 16 0;
#X connect 6 0 7 0;
#X connect 6 1 8 0;
#X connect 6 2 9 0;
#X connect 7 0 24 0;
#X connect 8 0 21 0;
#X connect 9 0 17 0;
#X connect 10 0 11 0;
#X connect 12 0 13 0;
#X connect 14 0 15 0;
#X connect 16 0 6 0;
#X connect 17 0 18 0;
#X connect 18 0 20 0;
#X connect 19 0 14 0;
#X connect 20 0 19 0;
#X connect 21 0 29 0;
#X connect 22 0 30 0;
#X connect 23 0 26 0;
#X connect 24 0 25 0;
#X connect 25 0 23 0;
#X connect 26 0 10 0;
#X connect 27 0 4 0;
#X connect 28 0 3 0;
#X connect 29 0 22 0;
#X connect 30 0 12 0;
