#N canvas -597 188 450 300 12;
#X floatatom 508 605 5 0 0 0 - - - 0;
#X obj 457 662 sel 0;
#X obj 514 661 sel 1;
#X obj 566 663 sel 2;
#X obj 508 557 random 4;
#X obj 623 666 sel 3;
#X obj 623 694 outlet;
#X obj 566 692 outlet;
#X obj 514 691 outlet;
#X obj 457 691 outlet;
#X obj 508 509 inlet;
#X connect 0 0 1 0;
#X connect 0 0 2 0;
#X connect 0 0 3 0;
#X connect 0 0 5 0;
#X connect 1 0 9 0;
#X connect 2 0 8 0;
#X connect 3 0 7 0;
#X connect 4 0 0 0;
#X connect 5 0 6 0;
#X connect 10 0 4 0;
