#N canvas -1634 -7 1440 776 12;
#X obj 639 233 tgl 15 0 empty empty empty 17 7 0 10 #fcfcfc #000000
#000000 0 1;
#X obj 638 257 send ON;
#X text 587 232 toggle;
#X obj 650 418 clock;
#X obj 489 340 Time_Input;
#X msg 489 308 bang;
#X msg 556 308 bang;
#X text 496 289 ON;
#X text 560 289 OFF;
#X obj 603 341 Motion_Input;
#X msg 603 308 bang;
#X msg 684 309 bang;
#X text 609 288 ON;
#X text 685 289 OFF;
#X obj 733 341 Environment_Input;
#X msg 733 309 bang;
#X msg 849 308 bang;
#X text 739 289 ON;
#X text 850 288 OFF;
#X obj 650 381 Tempo;
#X floatatom 650 400 5 0 0 0 - - - 0;
#X obj 506 437 Upper_Melody_1~;
#X obj 615 437 Upper_Melody_2~;
#X obj 724 437 Upper_Melody_3~;
#X obj 555 456 Middle_Melody_1~;
#X obj 671 456 Middle_Melody_2~;
#X obj 626 475 Lower_Melody~;
#X obj 650 494 Mixer;
#X obj 528 381 r upfilter;
#X floatatom 528 419 5 0 0 0 - - - 0;
#X floatatom 746 419 5 0 0 0 - - - 0;
#X obj 746 381 r midfilter;
#X connect 0 0 1 0;
#X connect 5 0 4 0;
#X connect 6 0 4 1;
#X connect 10 0 9 0;
#X connect 11 0 9 1;
#X connect 15 0 14 0;
#X connect 16 0 14 1;
#X connect 19 0 20 0;
#X connect 28 0 29 0;
#X connect 31 0 30 0;
