#N canvas -818 -261 653 604 12;
#X obj -43 -121 loadbang;
#X msg -36 -80 60000;
#X obj 59 -120 loadbang;
#X msg 59 -81 60;
#X floatatom 59 -38 5 0 0 0 - - - 0;
#X obj 41 14 bng 15 250 50 0 empty empty empty 17 7 0 10 #fcfcfc #000000
#000000;
#X obj 41 51 /;
#X obj 34 143 send 4th_time;
#X floatatom 38 90 5 0 0 0 - - - 0;
#X obj 179 -247 vsl 15 128 0 127 0 0 empty empty empty 0 -9 0 10 #fcfcfc
#000000 #000000 0 1;
#X floatatom 182 -55 5 0 0 0 - - - 0;
#X obj 260 -117 r bpm;
#X obj 179 -9 outlet;
#X connect 0 0 1 0;
#X connect 1 0 6 0;
#X connect 2 0 3 0;
#X connect 3 0 4 0;
#X connect 4 0 6 1;
#X connect 4 0 5 0;
#X connect 5 0 6 0;
#X connect 6 0 8 0;
#X connect 8 0 7 0;
#X connect 9 0 10 0;
#X connect 10 0 4 0;
#X connect 10 0 12 0;
#X connect 11 0 10 0;
