#N canvas -988 143 450 300 12;
#X obj 256 -568 netreceive -u -b;
#X obj 256 -525 oscparse;
#X msg 378 -606 listen 0;
#X obj 241 -463 list trim;
#X msg 257 -605 listen 5000;
#X floatatom 174 -336 5 0 0 0 - - - 0;
#X floatatom 226 -335 5 0 0 0 - - - 0;
#X floatatom 274 -334 5 0 0 0 - - - 0;
#X floatatom 326 -333 5 0 0 0 - - - 0;
#X text 320 -641 Time Input;
#X obj 170 -412 route keyScale bassChord midChord upChord;
#X obj 51 -288 send keyScale;
#X obj 164 -287 send bassChord;
#X obj 276 -282 send midChord;
#X obj 384 -281 send upChord;
#X obj 255 -641 inlet;
#X obj 417 -640 inlet;
#X connect 0 0 1 0;
#X connect 1 0 3 0;
#X connect 2 0 0 0;
#X connect 3 0 10 0;
#X connect 4 0 0 0;
#X connect 5 0 11 0;
#X connect 6 0 12 0;
#X connect 7 0 13 0;
#X connect 8 0 14 0;
#X connect 10 0 5 0;
#X connect 10 1 6 0;
#X connect 10 2 7 0;
#X connect 10 3 8 0;
#X connect 15 0 4 0;
#X connect 16 0 2 0;
