#N canvas 75 101 1149 623 12;
#X floatatom 1812 -502 5 0 0 0 - - - 0;
#X obj 1812 -456 phasor~;
#X obj 1812 -307 *~;
#X obj 2007 -539 bng 15 250 50 0 empty empty empty 17 7 0 10 #fcfcfc
#000000 #000000;
#X floatatom 2124 -519 5 0 0 0 - - - 0;
#X obj 2124 -481 - 500;
#X text 2131 -590 Envelope;
#X obj 2092 -437 delay;
#X msg 2007 -399 1 500;
#X msg 2092 -385 0 500;
#X obj 2174 -496 receive ON;
#X obj 2174 -460 sel 0;
#X obj 2175 -404 delay 5;
#X obj 2033 -337 line;
#X floatatom 1945 -449 5 0 0 0 - - - 0;
#X obj 1945 -426 phasor~;
#X obj 1767 -585 r 4th_note;
#X obj 2124 -558 r 4th_time;
#X obj 1772 -553 bng 15 250 50 0 empty empty empty 17 7 0 10 #fcfcfc
#000000 #000000;
#X obj 1766 -530 Upper_Melody_Selector;
#X obj 1813 -185 send~ Ambient_Pad_Upper1;
#X floatatom 1695 -431 5 0 0 0 - - - 0;
#X obj 1695 -408 phasor~;
#X obj 1695 -462 * \$1;
#X obj 1945 -481 * \$1;
#X obj 1812 -276 *~ 0.08;
#X floatatom 1560 -597 5 0 0 0 - - - 0;
#X obj 1560 -633 Lower_Detune_Selector;
#X obj 1933 -643 Upper_Detune_Selector;
#X floatatom 1959 -600 5 0 0 0 - - - 0;
#X obj 1812 -384 hip~ \$1;
#X obj 1866 -434 r upfilter;
#X connect 0 0 1 0;
#X connect 0 0 23 0;
#X connect 0 0 24 0;
#X connect 1 0 30 0;
#X connect 2 0 25 0;
#X connect 3 0 7 0;
#X connect 3 0 8 0;
#X connect 4 0 5 0;
#X connect 5 0 7 1;
#X connect 7 0 9 0;
#X connect 8 0 13 0;
#X connect 9 0 13 0;
#X connect 10 0 11 0;
#X connect 11 0 12 0;
#X connect 12 0 9 0;
#X connect 13 0 2 1;
#X connect 14 0 15 0;
#X connect 15 0 30 0;
#X connect 16 0 3 0;
#X connect 16 0 18 0;
#X connect 17 0 4 0;
#X connect 18 0 19 0;
#X connect 19 0 0 0;
#X connect 21 0 22 0;
#X connect 22 0 30 0;
#X connect 23 0 21 0;
#X connect 24 0 14 0;
#X connect 25 0 20 0;
#X connect 26 0 23 1;
#X connect 27 0 26 0;
#X connect 28 0 29 0;
#X connect 29 0 24 1;
#X connect 30 0 2 0;
#X connect 31 0 30 1;
