#N canvas -1895 -84 1232 832 12;
#X text 2558 -697 Upper melody;
#X floatatom 2450 -469 5 0 0 0 - - - 0;
#X obj 2450 -423 phasor~;
#X obj 2450 -274 *~;
#X obj 2590 -502 bng 15 250 50 0 empty empty empty 17 7 0 10 #fcfcfc
#000000 #000000;
#X floatatom 2707 -482 5 0 0 0 - - - 0;
#X obj 2707 -444 - 500;
#X text 2719 -551 Envelope;
#X obj 2675 -400 delay;
#X msg 2590 -362 1 500;
#X msg 2675 -348 0 500;
#X obj 2788 -459 receive ON;
#X obj 2788 -423 sel 0;
#X obj 2789 -367 delay 5;
#X obj 2616 -300 line;
#X floatatom 2528 -412 5 0 0 0 - - - 0;
#X obj 2528 -389 phasor~;
#X obj 2424 -671 r 4th_note;
#X obj 2707 -521 r 4th_time;
#X obj 2405 -522 bng 15 250 50 0 empty empty empty 17 7 0 10 #fcfcfc
#000000 #000000;
#X obj 2404 -497 Upper_Melody_Selector;
#X obj 2450 -202 send~ Ambient_Pad_Upper2;
#X floatatom 2357 -407 5 0 0 0 - - - 0;
#X obj 2357 -384 phasor~;
#X obj 2357 -439 * \$1;
#X obj 2528 -444 * \$1;
#X obj 2450 -243 *~ 0.06;
#X obj 2551 -616 Upper_Detune_Selector;
#X floatatom 2556 -576 5 0 0 0 - - - 0;
#X floatatom 2302 -534 5 0 0 0 - - - 0;
#X obj 2270 -566 Lower_Detune_Selector;
#X obj 2425 -559 delay \$1;
#X floatatom 2477 -596 5 0 0 0 - - - 0;
#X obj 2512 -656 r 4th_time;
#X obj 2479 -624 / 6;
#X obj 2515 -324 r upfilter;
#X obj 2450 -351 hip~ \$1;
#X connect 1 0 2 0;
#X connect 1 0 24 0;
#X connect 1 0 25 0;
#X connect 2 0 36 0;
#X connect 3 0 26 0;
#X connect 4 0 8 0;
#X connect 4 0 9 0;
#X connect 5 0 6 0;
#X connect 6 0 8 1;
#X connect 8 0 10 0;
#X connect 9 0 14 0;
#X connect 10 0 14 0;
#X connect 11 0 12 0;
#X connect 12 0 13 0;
#X connect 13 0 10 0;
#X connect 14 0 3 1;
#X connect 15 0 16 0;
#X connect 16 0 36 0;
#X connect 17 0 31 0;
#X connect 18 0 5 0;
#X connect 19 0 20 0;
#X connect 20 0 1 0;
#X connect 22 0 23 0;
#X connect 23 0 36 0;
#X connect 24 0 22 0;
#X connect 25 0 15 0;
#X connect 26 0 21 0;
#X connect 27 0 28 0;
#X connect 28 0 25 1;
#X connect 29 0 24 1;
#X connect 30 0 29 0;
#X connect 31 0 4 0;
#X connect 31 0 19 0;
#X connect 32 0 31 1;
#X connect 33 0 34 0;
#X connect 34 0 32 0;
#X connect 35 0 36 1;
#X connect 36 0 3 0;
