#N canvas -2387 -402 2365 559 12;
#X obj 337 283 select 1;
#X obj 1705 29 expr if($f1 < 0 \, 0 \, $f1);
#X obj 270 283 select 0;
#X obj 401 283 select 2;
#X obj 469 283 select 3;
#X obj 533 283 select 4;
#X obj 599 283 select 5;
#X obj 665 282 select 6;
#X obj 730 282 select 7;
#X obj 793 282 select 8;
#X obj 859 281 select 9;
#X obj 924 281 select 10;
#X obj 997 280 select 11;
#X obj 1068 280 select 12;
#X obj 1139 280 select 13;
#X obj 1212 280 select 14;
#X obj 1283 280 select 15;
#X obj 1354 280 select 16;
#X obj 1427 280 select 17;
#X obj 1498 280 select 18;
#X obj 1570 280 select 19;
#X obj 1643 280 select 20;
#X obj 1716 280 select 21;
#X obj 1787 279 select 22;
#X obj 1858 279 select 23;
#X obj 1931 279 select 24;
#X obj 2002 279 select 25;
#X obj 2073 279 select 26;
#X obj 2146 279 select 27;
#X obj 2217 279 select 28;
#X obj 2289 279 select 29;
#X obj 2362 278 select 30;
#X obj 275 381 1;
#X obj 415 396 1.001;
#X obj 675 397 1.002;
#X obj 891 406 1.003;
#X obj 1257 401 1.004;
#X obj 1573 402 1.005;
#X obj 1816 398 1.006;
#X obj 2089 402 1.007;
#X obj 2408 402 1.008;
#X obj 2625 396 1.009;
#X obj 2434 278 select 31;
#X obj 2507 278 select 32;
#X obj 2578 278 select 33;
#X obj 2650 278 select 34;
#X obj 2723 277 select 35;
#X obj 2798 277 select 36;
#X obj 1706 83 expr if($f1 > 40 \, 40 \, $f1);
#X obj 1749 646 outlet;
#X obj 1710 -8 \$1;
#X obj 1723 -64 r temperatureFeels;
#X floatatom 1747 -36 5 0 0 0 - - - 0;
#X connect 0 0 33 0;
#X connect 1 0 48 0;
#X connect 2 0 32 0;
#X connect 3 0 33 0;
#X connect 4 0 33 0;
#X connect 5 0 33 0;
#X connect 6 0 34 0;
#X connect 7 0 34 0;
#X connect 8 0 34 0;
#X connect 9 0 34 0;
#X connect 10 0 35 0;
#X connect 11 0 35 0;
#X connect 12 0 35 0;
#X connect 13 0 35 0;
#X connect 14 0 36 0;
#X connect 15 0 36 0;
#X connect 16 0 36 0;
#X connect 17 0 36 0;
#X connect 18 0 37 0;
#X connect 19 0 37 0;
#X connect 20 0 37 0;
#X connect 21 0 37 0;
#X connect 22 0 38 0;
#X connect 23 0 38 0;
#X connect 24 0 38 0;
#X connect 25 0 38 0;
#X connect 26 0 39 0;
#X connect 27 0 39 0;
#X connect 28 0 39 0;
#X connect 29 0 39 0;
#X connect 30 0 40 0;
#X connect 31 0 40 0;
#X connect 32 0 49 0;
#X connect 33 0 49 0;
#X connect 34 0 49 0;
#X connect 35 0 49 0;
#X connect 36 0 49 0;
#X connect 37 0 49 0;
#X connect 38 0 49 0;
#X connect 39 0 49 0;
#X connect 40 0 49 0;
#X connect 41 0 49 0;
#X connect 42 0 40 0;
#X connect 43 0 40 0;
#X connect 44 0 41 0;
#X connect 45 0 41 0;
#X connect 46 0 41 0;
#X connect 47 0 41 0;
#X connect 48 0 2 0;
#X connect 48 0 0 0;
#X connect 48 0 3 0;
#X connect 48 0 4 0;
#X connect 48 0 5 0;
#X connect 48 0 6 0;
#X connect 48 0 7 0;
#X connect 48 0 8 0;
#X connect 48 0 9 0;
#X connect 48 0 10 0;
#X connect 48 0 11 0;
#X connect 48 0 12 0;
#X connect 48 0 13 0;
#X connect 48 0 14 0;
#X connect 48 0 15 0;
#X connect 48 0 16 0;
#X connect 48 0 17 0;
#X connect 48 0 18 0;
#X connect 48 0 19 0;
#X connect 48 0 20 0;
#X connect 48 0 21 0;
#X connect 48 0 22 0;
#X connect 48 0 23 0;
#X connect 48 0 24 0;
#X connect 48 0 25 0;
#X connect 48 0 26 0;
#X connect 48 0 27 0;
#X connect 48 0 28 0;
#X connect 48 0 29 0;
#X connect 48 0 30 0;
#X connect 48 0 31 0;
#X connect 48 0 42 0;
#X connect 48 0 43 0;
#X connect 48 0 44 0;
#X connect 48 0 45 0;
#X connect 48 0 46 0;
#X connect 48 0 47 0;
#X connect 50 0 1 0;
#X connect 51 0 52 0;
#X connect 52 0 50 0;
